<?xml version="1.0" encoding="UTF-8"?>
<svg id="Layer_2" data-name="Layer 2" xmlns="http://www.w3.org/2000/svg" viewBox="0 0 42.92 38.75">
  <g id="Layer_1-2" data-name="Layer 1">
    <path d="M23.31,33.6c-6.74,1.67-13.99-1.86-17.7-7.55-2.16-3.32-3.34-7.62-2.21-11.51s4.25-6.26,7.5-8.04c6.99-3.83,15.89-5.26,22.6-.1,5.91,4.55,7.99,12.39,5.2,19.29-3.22,7.97-12.38,11.87-20.46,9.24-1.84-.6-2.63,2.3-.8,2.89,8.34,2.72,17.97-.62,22.58-8.14s3.65-17.24-2.41-23.6C34.65,2.96,30.68,.84,26.42,.22c-4.96-.72-9.93,.43-14.46,2.43C7.92,4.43,3.86,7.05,1.66,11.01c-2.36,4.24-2.01,9.33-.15,13.68,3.64,8.52,13.46,14.07,22.6,11.8,1.87-.46,1.08-3.36-.8-2.89h0Z"/>
    <path d="M11.82,10.42c1.93,0,1.93-3,0-3s-1.93,3,0,3h0Z"/>
    <path d="M18.48,10.05c1.93,0,1.93-3,0-3s-1.93,3,0,3h0Z"/>
    <path d="M10.23,15.56c1.37,2.82,5.74,3.39,7.82,1.07,.52-.58,.62-1.55,0-2.12-.57-.52-1.56-.62-2.12,0-.09,.1-.18,.18-.27,.27-.18,.18,.32-.22,.1-.08-.05,.03-.1,.07-.16,.1-.03,.02-.33,.15-.33,.18,0-.03,.41-.15,.15-.07-.06,.02-.12,.04-.18,.06-.12,.04-.24,.07-.37,.09-.05,0-.1,.02-.16,.03,.5-.1,.27-.04,.15-.03s-.26,.01-.38,0c-.16,0-.6-.1-.05,.01-.24-.05-.48-.09-.71-.18-.06-.02-.3-.12-.03,0s.06,.03,0,0c-.11-.06-.22-.12-.33-.19-.05-.03-.1-.07-.16-.11-.21-.14,.29,.25,.11,.08-.09-.09-.19-.17-.27-.26-.02-.02-.11-.15-.12-.14,.03,0,.26,.36,.09,.1-.07-.11-.13-.22-.19-.33-.34-.71-1.41-.95-2.05-.54-.73,.47-.91,1.3-.54,2.05h0Z"/>
  </g>
</svg>