<?xml version="1.0" encoding="UTF-8"?>
<svg id="Layer_2" data-name="Layer 2" xmlns="http://www.w3.org/2000/svg" viewBox="0 0 201.08 248.49">
  <defs>
    <style>
      .cls-1 {
        opacity: .08;
      }
      .cls-2 {
        opacity: .12;
      }
      .cls-3 {
        fill: #f9f9f9;
      }
      .cls-4 {
        fill: #a67c52;
      }
      .cls-5 {
        fill: #c7b299;
      }
    </style>
  </defs>
  <g id="Layer_1-2" data-name="Layer 1">
    <g>
      <path class="cls-5" d="M68.5,87.88c-8.71-9.66-17.87-20.31-19-33.27-1.42-16.22,10.4-30.84,23.93-39.9C88.76,4.44,107.92-1.22,125.94,2.72c18.02,3.95,34.07,18.87,36.08,37.22,1.03,9.37-1.5,18.85-5.64,27.32s-9.85,16.05-15.56,23.55"/>
      <path d="M69.56,86.82c-5.48-6.08-10.99-12.32-14.74-19.65s-4.96-15.02-2.96-22.8c3.98-15.45,17.8-26.84,31.49-33.71C97.99,3.32,115.65,.2,131.39,5.86c13.29,4.77,24.91,15.83,28.35,29.77,4.43,17.93-5.84,35.12-16.09,48.95-1.36,1.83-2.74,3.65-4.12,5.47-1.17,1.53,1.43,3.03,2.59,1.51,11.28-14.79,23.58-31.95,21.41-51.62-1.68-15.24-12.5-28.12-26.02-34.73-15.66-7.65-34.09-6.29-49.89,.23-15.25,6.29-30.34,17.36-36.89,32.99-3.21,7.66-3.72,16.09-1.12,24s7.95,15.14,13.48,21.58c1.43,1.66,2.89,3.29,4.35,4.92,1.3,1.44,3.41-.69,2.12-2.12h0Z"/>
    </g>
    <g>
      <path class="cls-5" d="M67.1,87.39c6.51,3.09,8.73,11.7,6.95,18.68s-6.55,12.74-11.03,18.39c-10.13,12.8-19.56,26.59-24.06,42.28-4.5,15.69-3.45,33.67,6.09,46.92,6.51,9.04,16.44,15.2,26.99,18.76,10.55,3.55,21.77,4.68,32.9,5.15,15.26,.65,31,.01,45.01-6.09,14-6.1,26.01-18.66,27.7-33.84,1.5-13.55-5.2-26.68-13.27-37.65s-17.79-20.9-23.89-33.09-7.88-27.81,.07-38.88"/>
      <path d="M66.34,88.68c5.15,2.54,7.11,8.47,6.76,13.91-.45,6.88-4.92,12.91-9.02,18.14-9,11.46-17.76,23.11-23.41,36.66-5.26,12.63-7.43,26.72-4.36,40.19,1.46,6.4,4.17,12.56,8.16,17.8s9.24,9.67,15.01,13.02c13.11,7.62,28.43,9.82,43.34,10.57,15,.76,30.61,.48,44.82-4.94,11.73-4.47,22.46-12.83,27.99-24.31,2.83-5.88,4.12-12.37,3.6-18.88-.57-7.2-3.07-14.09-6.44-20.43-6.93-13.01-17.67-23.34-25.85-35.5-7.33-10.9-12.77-24.59-9.07-37.83,.84-2.99,2.18-5.77,3.97-8.31,1.12-1.58-1.48-3.08-2.59-1.51-7.61,10.76-6.53,25.21-1.68,36.86,5.55,13.34,15.88,23.84,24.45,35.23s16.19,24.92,13.97,39.35c-1.88,12.18-10.52,22.27-20.87,28.43-12.59,7.5-27.7,9.19-42.08,9.13-15.11-.06-31-1.06-45.08-6.98-12.18-5.12-22.57-14.18-27.11-26.83s-3.53-26.82,.86-39.44c4.76-13.71,13.17-25.85,22.1-37.16,4.34-5.5,8.99-11.01,11.21-17.77,1.78-5.42,1.52-11.75-1.48-16.7-1.37-2.26-3.31-4.13-5.69-5.3-1.73-.85-3.25,1.74-1.51,2.59h0Z"/>
    </g>
    <g>
      <path class="cls-3" d="M72.77,210.76c-11.31-.27-20.53-11.33-20.78-22.64s7.03-21.88,16.67-27.79,21.3-7.71,32.61-7.57c18.76,.24,38.45,6.27,50.46,20.69,5.95,7.14,9.71,17.39,5.65,25.75-4.09,8.44-14.29,11.74-23.52,13.38-20,3.56-40.68,3.33-60.6-.67"/>
      <path d="M72.77,209.26c-7.74-.26-14.17-5.83-17.3-12.65-3.38-7.37-2.12-15.82,1.85-22.68,9.38-16.19,29.29-20.33,46.63-19.59,16.35,.7,33.51,5.92,44.95,18.17,5.48,5.87,10.16,14.43,8.29,22.72s-9.16,12.07-16.38,14.22c-4.17,1.24-8.49,1.96-12.79,2.57-5.17,.74-10.39,1.2-15.6,1.43-10.41,.45-20.88-.08-31.18-1.64-2.53-.38-5.05-.83-7.56-1.33-1.89-.38-2.69,2.52-.8,2.89,10.96,2.18,22.13,3.29,33.31,3.23s21.55-.94,31.93-3.34c7.8-1.8,16.26-5.24,20.25-12.67,4.39-8.16,1.63-18.01-3.33-25.24-10.23-14.92-28.7-21.94-46.07-23.66-18.54-1.83-40.04,1.43-51.93,17.26-5.17,6.89-7.93,15.94-5.82,24.46,1.96,7.95,7.89,15.12,15.72,17.8,1.88,.65,3.86,.97,5.85,1.04s1.93-2.93,0-3h0Z"/>
    </g>
    <path d="M72.17,177.34h.62c.21,0,.4-.04,.58-.13,.19-.06,.35-.16,.48-.31,.15-.14,.25-.3,.31-.48,.09-.18,.14-.37,.13-.58l-.05-.4c-.07-.25-.2-.47-.39-.66l-.3-.23c-.23-.14-.49-.2-.76-.2h-.62c-.21,0-.4,.04-.58,.13-.19,.06-.35,.16-.48,.31-.15,.14-.25,.3-.31,.48-.09,.18-.14,.37-.13,.58l.05,.4c.07,.25,.2,.47,.39,.66l.3,.23c.23,.14,.49,.2,.76,.2h0Z"/>
    <path d="M134.41,174.6v.62c0,.21,.04,.4,.13,.58,.06,.19,.16,.35,.31,.48,.14,.15,.3,.25,.48,.31,.18,.09,.37,.14,.58,.13l.4-.05c.25-.07,.47-.2,.66-.39l.23-.3c.14-.23,.2-.49,.2-.76v-.62c0-.21-.04-.4-.13-.58-.06-.19-.16-.35-.31-.48-.14-.15-.3-.25-.48-.31-.18-.09-.37-.14-.58-.13l-.4,.05c-.25,.07-.47,.2-.66,.39l-.23,.3c-.14,.23-.2,.49-.2,.76h0Z"/>
    <path d="M95.69,192.19h13c1.93,0,1.93-3,0-3h-13c-1.93,0-1.93,3,0,3h0Z"/>
    <path d="M69.53,152.15c5.26-8.38,10.61-16.71,15.78-25.16,4.46-7.3,8.63-15.34,8.54-24.12s-4.37-17.3-8.64-25-8.9-15.46-9.25-24.23c-.29-7.22,2.81-15.72,10.03-18.53,1.78-.69,1.01-3.6-.8-2.89-6.62,2.58-10.65,8.93-11.83,15.76-1.45,8.39,1.48,16.54,5.23,23.94,4.12,8.13,9.45,15.83,11.51,24.83,1,4.37,.98,8.83-.13,13.18s-3.11,8.44-5.34,12.34c-2.64,4.61-5.56,9.06-8.38,13.55l-9.3,14.81c-1.03,1.64,1.57,3.15,2.59,1.51h0Z"/>
    <path d="M131.09,24.02c5.63,4.52,6.39,12.26,4.94,18.92-1.83,8.35-7.26,15.28-11.29,22.65-2.15,3.94-3.93,8.07-4.92,12.46s-1.3,9.2-1.06,13.82c.49,9.61,3.06,18.92,5.7,28.13,3.03,10.55,6.12,21.25,5.87,32.33-.04,1.93,2.96,1.93,3,0,.45-20.04-9.65-38.23-11.4-57.96-.42-4.72-.38-9.53,.51-14.2s2.57-8.81,4.78-12.88c4.08-7.52,9.58-14.58,11.57-23.04,1.83-7.74,1.01-17.05-5.59-22.35-1.49-1.2-3.63,.91-2.12,2.12h0Z"/>
    <path d="M102.62,36.69c-7.37,14.14-4.92,30.61-.06,45.12,1.5,4.48,3.21,8.87,4.93,13.27,.69,1.78,3.6,1.01,2.89-.8-5.48-14.04-11.38-29.12-8.92-44.48,.65-4.04,1.86-7.96,3.75-11.59,.89-1.71-1.7-3.23-2.59-1.51h0Z"/>
    <path d="M104.88,118.55c-2.04,6.71-4.86,13.13-8.42,19.17-.98,1.67,1.61,3.18,2.59,1.51,3.69-6.25,6.61-12.94,8.72-19.88,.56-1.85-2.33-2.64-2.89-.8h0Z"/>
    <path d="M120.81,133.14l-.62-12.99c-.04-.81-.66-1.5-1.5-1.5-.78,0-1.54,.69-1.5,1.5l.62,12.99c.04,.81,.66,1.5,1.5,1.5,.78,0,1.54-.69,1.5-1.5h0Z"/>
    <path d="M115.4,52.88c5.88-7.93,6.7-18.91,2.34-27.72-.86-1.73-3.45-.21-2.59,1.51,3.92,7.9,2.89,17.64-2.34,24.69-1.15,1.55,1.45,3.05,2.59,1.51h0Z"/>
    <path d="M60.84,207.01c-.84,5.71,.03,11.45,2.58,16.64,.85,1.73,3.44,.21,2.59-1.51-2.16-4.4-2.99-9.48-2.27-14.33,.12-.8-.2-1.61-1.05-1.85-.71-.19-1.73,.24-1.85,1.05h0Z"/>
    <path d="M87.43,218.32l1.24,8.04c.12,.78,1.14,1.28,1.85,1.05,.85-.27,1.18-1.01,1.05-1.85l-1.24-8.04c-.12-.78-1.14-1.28-1.85-1.05-.85,.27-1.18,1.01-1.05,1.85h0Z"/>
    <path d="M114.19,217.44c-.04-.1-.03-.07,.04,.1,.04,.1,.08,.21,.12,.31,.06,.16,.11,.31,.17,.47,.13,.37,.24,.74,.34,1.11,.09,.32,.16,.65,.23,.97,.05,.22,.09,.44,.12,.65,0,.04,.07,.48,.04,.26,.1,.71,.14,1.44,.14,2.16,0,.39-.01,.78-.04,1.16-.01,.17-.02,.33-.04,.5,0,.06-.07,.6-.05,.43-.11,.77,.19,1.65,1.05,1.85,.71,.16,1.73-.22,1.85-1.05,.5-3.59,.04-7.1-1.39-10.44-.31-.72-1.43-.94-2.05-.54-.75,.48-.87,1.28-.54,2.05h0Z"/>
    <path d="M144.31,211.11c.51,4.51-.11,9-1.8,13.22-.3,.75,.33,1.65,1.05,1.85,.86,.24,1.54-.29,1.85-1.05,1.78-4.42,2.44-9.28,1.91-14.01-.09-.8-.62-1.5-1.5-1.5-.74,0-1.59,.69-1.5,1.5h0Z"/>
    <path d="M150.95,157.71c11.16,10.53,16.31,26.82,13.08,41.84-.4,1.88,2.49,2.69,2.89,.8,3.45-16.05-1.9-33.48-13.85-44.76-1.4-1.32-3.53,.79-2.12,2.12h0Z"/>
    <path d="M47.09,180.18c1-8.28,4.56-16.2,10.02-22.49,1.26-1.45-.85-3.58-2.12-2.12-6.04,6.94-9.8,15.48-10.9,24.61-.1,.81,.76,1.49,1.5,1.5,.89,0,1.4-.7,1.5-1.5h0Z"/>
    <path d="M143.71,67.31c5.16-6.01,8.21-13.51,8.7-21.41,.12-1.93-2.88-1.92-3,0-.44,7.07-3.21,13.92-7.82,19.29-1.25,1.46,.86,3.59,2.12,2.12h0Z"/>
    <path d="M65.33,64.13c-2.06-7.62-2.41-15.63-.94-23.39,.36-1.89-2.54-2.7-2.89-.8-1.56,8.3-1.26,16.83,.94,24.99,.5,1.86,3.4,1.07,2.89-.8h0Z"/>
    <path d="M55.8,47.66c21.87,8.44,46.57,9.13,68.96,2.27,6.29-1.93,12.4-4.46,18.22-7.54,1.71-.9,.19-3.49-1.51-2.59-20.12,10.67-43.85,14.22-66.25,10.19-6.36-1.14-12.59-2.9-18.61-5.22-1.8-.7-2.58,2.2-.8,2.89h0Z"/>
    <path d="M72.19,70.87c22.9,.88,46.57,1.65,68.74-5.14,6.08-1.86,11.97-4.32,17.54-7.39,1.41-.78,.62-2.65-.76-2.8-1.27-.14-2.53-.27-3.8-.41-1.92-.2-1.9,2.8,0,3,1.27,.14,2.53,.27,3.8,.41l-.76-2.8c-19.94,11.02-43.16,12.85-65.51,12.65-6.42-.06-12.84-.28-19.25-.53-1.93-.07-1.93,2.93,0,3h0Z"/>
    <path d="M82.1,95.49c14.4,1.86,29.21-.09,42.64-5.62,1.76-.72,.99-3.63-.8-2.89-13.22,5.44-27.66,7.35-41.84,5.51-1.91-.25-1.89,2.76,0,3h0Z"/>
    <path d="M77.74,109.86c18.08,.08,36.13-2.73,53.32-8.31,1.83-.59,1.05-3.49-.8-2.89-16.96,5.51-34.7,8.28-52.52,8.21-1.93,0-1.93,2.99,0,3h0Z"/>
    <path d="M75.87,126.36c8.3,.59,16.61,.89,24.93,.89,4.2,0,8.4-.08,12.6-.24,3.83-.14,7.81-.22,11.47-1.49,3.42-1.18,6.57-3.41,8.15-6.74,.83-1.73-1.76-3.26-2.59-1.51-1.85,3.88-5.91,5.6-9.94,6.24-4.74,.75-9.71,.63-14.5,.7-10.05,.16-20.1-.13-30.12-.84-1.93-.14-1.92,2.86,0,3h0Z"/>
    <path d="M59.56,139.76c18.23,7.25,38.9,8,57.68,2.41,5.36-1.59,10.56-3.72,15.52-6.31,1.71-.9,.2-3.49-1.51-2.59-16.85,8.82-36.7,11.66-55.38,8.11-5.3-1.01-10.49-2.52-15.51-4.51-1.79-.71-2.57,2.19-.8,2.89h0Z"/>
    <path d="M44.94,165.6c4.95,.21,9.9,.41,14.85,.62,1.93,.08,1.93-2.92,0-3-4.95-.21-9.9-.41-14.85-.62-1.93-.08-1.93,2.92,0,3h0Z"/>
    <path d="M154.15,171.52c5,1.87,11.18-.59,13.56-5.35,.36-.72,.19-1.62-.54-2.05-.67-.39-1.69-.19-2.05,.54-.52,1.04-1,1.66-1.87,2.43-.21,.18-.32,.27-.44,.36-.21,.15-.43,.3-.66,.44-.44,.27-.98,.53-1.28,.65-.49,.19-1,.34-1.52,.45-.13,.03-.26,.05-.39,.08-.48,.1,.26-.01-.23,.03-.26,.03-.52,.05-.79,.05-1.13,.03-1.87-.09-3-.52-.76-.28-1.64,.32-1.85,1.05-.23,.84,.29,1.56,1.05,1.85h0Z"/>
    <path d="M166.04,191.69c4.85-.78,9.2-3.67,11.95-7.7,.46-.67,.13-1.66-.54-2.05-.74-.43-1.59-.13-2.05,.54-1.1,1.62-2.66,3.1-4.34,4.15-1.82,1.14-3.65,1.82-5.82,2.17-.8,.13-1.25,1.13-1.05,1.85,.23,.85,1.04,1.18,1.85,1.05h0Z"/>
    <path d="M58.84,221.65c17.83,5.28,36.77,6.4,55.11,3.36,5.21-.86,10.36-2.07,15.42-3.61,1.84-.56,1.06-3.46-.8-2.89-17.4,5.29-35.99,6.58-53.95,3.68-5.06-.82-10.07-1.97-14.99-3.43-1.86-.55-2.65,2.35-.8,2.89h0Z"/>
    <path d="M143.77,220.09l25.95-8.77c1.82-.62,1.04-3.51-.8-2.89l-25.95,8.77c-1.82,.62-1.04,3.51,.8,2.89h0Z"/>
    <path d="M52.36,197.64c-.43,.01-.85,0-1.28-.03-.1,0-.2-.02-.3-.03-.03,0-.31-.04-.17-.02s-.15-.02-.17-.03c-.1-.02-.2-.03-.3-.05-.42-.08-.84-.18-1.25-.3-.19-.06-.38-.12-.57-.18-.09-.03-.19-.07-.28-.1-.03-.01-.38-.15-.24-.09-.17-.07-.68-.32-.98-.47-.38-.2-.74-.42-1.1-.66-.17-.11-.33-.23-.49-.35,.15,.11-.22-.18-.28-.24-.34-.29-.67-.61-.98-.94-.54-.57-1.58-.59-2.12,0s-.58,1.51,0,2.12c2.7,2.85,6.6,4.47,10.52,4.37,.78-.02,1.54-.68,1.5-1.5s-.66-1.52-1.5-1.5h0Z"/>
    <path d="M175.99,177.56c7.5-2.14,14.79-4.94,21.8-8.36,1.11-.54,.9-2.52-.36-2.74-1.68-.29-3.33,.14-4.47,1.47-1.25,1.46,.86,3.59,2.12,2.12,.4-.47,.9-.81,1.55-.7l-.36-2.74c-6.78,3.3-13.83,5.99-21.09,8.05-1.85,.53-1.07,3.42,.8,2.89h0Z"/>
    <path d="M198.04,165.73c.02,.06,.03,.11,.04,.17l-.05-.4c.02,.14,.02,.27,0,.41l.05-.4c-.02,.14-.06,.26-.11,.39l.15-.36c-.06,.13-.13,.24-.21,.35l.23-.3c-.07,.09-.15,.17-.25,.25l.3-.23c-.11,.08-.22,.15-.35,.21l.36-.15c-.09,.03-.18,.06-.28,.08l.4-.05c-.14,.02-.27,.02-.41,0l.4,.05c-.14-.02-.26-.06-.39-.11l.36,.15c-.13-.06-.24-.13-.35-.21l.3,.23c-.09-.07-.17-.15-.25-.25l.23,.3c-.07-.09-.13-.19-.18-.3l.15,.36c-.02-.05-.04-.11-.06-.16l-.15,1.16c.03-.06,.06-.11,.1-.16l-.23,.3c.06-.07,.12-.13,.19-.19l-.3,.23c.07-.05,.15-.1,.23-.13l-.36,.15c.11-.05,.23-.08,.35-.1l-.4,.05c.14-.02,.28-.02,.42,0l-.4-.05c.16,.02,.31,.06,.46,.13l-.36-.15c.13,.06,.26,.13,.37,.22l-.3-.23c.09,.07,.16,.15,.24,.23l-.23-.3c.07,.09,.12,.18,.17,.29l-.15-.36c.05,.13,.08,.25,.1,.39l-.05-.4c.02,.16,.02,.31,0,.47l.05-.4c-.03,.18-.08,.34-.15,.51l.15-.36c-.08,.17-.17,.32-.27,.47l.23-.3c-.13,.16-.27,.31-.43,.43l.3-.23c-.16,.12-.33,.23-.52,.31l.36-.15c-.16,.07-.33,.11-.5,.14l.4-.05c-.18,.02-.35,.02-.53,0l.4,.05c-.21-.03-.4-.09-.59-.17l.36,.15c-.21-.09-.4-.21-.58-.35l.3,.23c-.21-.17-.4-.36-.56-.57l.23,.3c-.17-.23-.32-.47-.44-.74l.15,.36c-.11-.26-.19-.53-.22-.81l.05,.4c-.02-.21-.03-.41,0-.62l-.05,.4c.03-.19,.08-.37,.15-.55l-.15,.36c.07-.15,.15-.29,.25-.42l-.23,.3c.11-.14,.24-.27,.38-.38l-.3,.23c.14-.1,.28-.19,.44-.25l-.36,.15c.17-.07,.35-.11,.53-.14l-.4,.05c.23-.03,.46-.03,.7,0l-.4-.05c.27,.04,.53,.11,.79,.22l-.36-.15c.27,.12,.52,.26,.76,.44l-.3-.23c.22,.17,.41,.36,.58,.57l-.23-.3c.13,.17,.24,.36,.33,.56l-.15-.36c.07,.17,.12,.35,.14,.53l-.05-.4c.02,.17,.02,.34,0,.51l.05-.4c-.01,.1-.03,.19-.06,.29l1.85-1.05c-.78-.24-1.56-.48-2.34-.72s-1.67,.27-1.85,1.05,.24,1.6,1.05,1.85,1.56,.48,2.34,.72,1.64-.28,1.85-1.05c.34-1.28-.07-2.52-.92-3.5-.78-.89-1.9-1.38-3.06-1.52s-2.38,.31-3.1,1.2c-.3,.36-.47,.67-.65,1.1-.12,.31-.16,.62-.2,.95-.06,.52,.02,1.08,.18,1.57,.37,1.11,1.13,2.15,2.17,2.71,1.17,.63,2.68,.67,3.78-.13,.71-.52,1.22-1.15,1.52-1.99,.28-.79,.18-1.68-.18-2.43-.61-1.24-2.28-1.86-3.57-1.46-.98,.3-2.03,1.28-1.7,2.41,.28,.94,1,1.58,1.88,1.94,1.61,.65,3.5-.48,3.83-2.15,.1-.48,.1-.95-.03-1.43-.2-.76-1.08-1.3-1.85-1.05s-1.27,1.03-1.05,1.85h0Z"/>
    <path d="M34.43,185.38c-10.27-.54-20.38-3.12-29.64-7.59-1.73-.84-3.25,1.75-1.51,2.59,9.76,4.71,20.33,7.43,31.15,8,1.93,.1,1.92-2.9,0-3h0Z"/>
    <path d="M3.99,179.61l-1.4-.51,.36,.15s-.04-.03-.07-.05l.3,.23c-.1-.08-.19-.17-.28-.28l.23,.3c-.08-.1-.14-.22-.19-.33l.15,.36c-.07-.16-.11-.32-.13-.49l.05,.4c-.02-.19-.02-.37,0-.56l-.05,.4c.03-.18,.07-.36,.14-.54l-.15,.36c.07-.16,.15-.3,.25-.44l-.23,.3c.08-.1,.17-.19,.27-.27l-.3,.23c.09-.07,.19-.13,.3-.18l-.36,.15c.11-.05,.23-.08,.35-.1l-.4,.05c.13-.02,.25-.02,.38,0l-.4-.05c.12,.02,.24,.06,.36,.1l-.36-.15c.13,.06,.25,.13,.36,.21l-.3-.23c.14,.11,.26,.23,.36,.36l-.23-.3c.1,.14,.19,.29,.26,.44l-.15-.36c.07,.16,.11,.32,.13,.49l-.05-.4c.01,.12,.01,.24,0,.37l.05-.4c-.02,.12-.05,.24-.1,.35l.15-.36c-.04,.09-.09,.17-.15,.25l.23-.3c-.07,.08-.14,.16-.22,.22l.3-.23c-.08,.06-.16,.11-.26,.15l.36-.15c-.12,.05-.23,.08-.36,.09l.4-.05c-.14,.02-.28,.01-.42,0l.4,.05c-.17-.02-.33-.07-.49-.13l.36,.15c-.16-.07-.3-.15-.44-.25l.3,.23c-.11-.09-.21-.18-.3-.29l.23,.3c-.07-.1-.14-.2-.19-.32l.15,.36c-.04-.09-.06-.18-.08-.28l.05,.4c-.01-.1-.01-.2,0-.3l-.05,.4c.01-.1,.04-.19,.07-.28l-.15,.36c.04-.08,.08-.16,.13-.23l-.23,.3c.06-.08,.13-.14,.2-.21l-.3,.23c.09-.07,.18-.12,.28-.17l-.36,.15c.14-.06,.28-.09,.42-.12l-.4,.05c.17-.02,.34-.02,.52,0l-.4-.05c.16,.02,.31,.06,.46,.12l-.36-.15c.11,.05,.22,.11,.31,.18l-.3-.23c.08,.06,.14,.12,.21,.2l-.23-.3c.06,.08,.11,.16,.15,.25l-.15-.36c.03,.08,.05,.17,.07,.26l-.05-.4c.01,.09,.01,.18,0,.28l.05-.4c-.02,.11-.05,.22-.09,.32l.15-.36c-.05,.1-.1,.2-.17,.29l.23-.3c-.08,.1-.17,.19-.27,.27l.3-.23c-.12,.09-.24,.16-.37,.21l.36-.15c-.12,.05-.24,.08-.37,.1l.4-.05c-.13,.02-.25,.02-.38,0l.4,.05c-.1-.02-.19-.04-.28-.08l.36,.15c-.09-.04-.18-.09-.26-.15l.3,.23c-.07-.06-.14-.12-.2-.2l.23,.3c-.06-.09-.12-.17-.16-.27l.15,.36c-.05-.11-.08-.23-.09-.35l.05,.4c-.02-.15-.02-.3,0-.45l-.05,.4c.02-.15,.06-.29,.12-.43l-.15,.36c.05-.11,.11-.21,.18-.31l-.23,.3c.07-.08,.14-.16,.22-.22l-.3,.23c.08-.06,.15-.1,.24-.14l-.36,.15s.08-.03,.11-.04h-.8s.07,.02,.11,.04l-.36-.15c.09,.04,.17,.09,.25,.15l-.3-.23c.07,.06,.14,.13,.2,.21l-.23-.3c.06,.09,.12,.18,.16,.28l-.15-.36c.05,.13,.09,.26,.11,.39l-.05-.4c.02,.15,.02,.3,0,.45l.05-.4c-.02,.14-.05,.27-.1,.39l.15-.36c-.05,.11-.11,.21-.18,.31l.23-.3c-.05,.07-.11,.12-.18,.18l.3-.23c-.08,.06-.16,.11-.25,.15l.36-.15s-.05,.02-.07,.03c-.37,.13-.69,.34-.9,.69-.19,.32-.27,.8-.15,1.16s.34,.71,.69,.9,.78,.28,1.16,.15c.88-.3,1.54-.97,1.79-1.88,.21-.78,.11-1.64-.28-2.35-.22-.39-.55-.72-.92-.96-.18-.11-.39-.19-.59-.26-.48-.16-.98,0-1.4,.23-.79,.43-1.27,1.28-1.39,2.16s.12,1.81,.77,2.44c.71,.68,1.78,.93,2.72,.63s1.68-.99,2.02-1.93c.31-.87,.03-1.87-.58-2.53-.93-1.02-2.71-1.2-3.87-.48-.77,.48-1.24,1.29-1.27,2.2-.02,.78,.37,1.61,.98,2.11,.64,.53,1.4,.87,2.24,.87,.96,0,1.79-.46,2.33-1.24,.48-.68,.57-1.66,.31-2.44s-.8-1.54-1.55-1.98c-.44-.26-.88-.37-1.38-.41s-.97,.11-1.4,.31c-.75,.35-1.24,1.06-1.52,1.81-.25,.65-.26,1.43-.08,2.1,.11,.4,.29,.76,.55,1.08,.1,.13,.2,.27,.33,.38s.26,.22,.4,.31c.18,.11,.39,.17,.59,.25l1.2,.43c.35,.13,.84,.03,1.16-.15s.61-.54,.69-.9c.09-.38,.07-.81-.15-1.16s-.51-.55-.9-.69h0Z"/>
    <path d="M77.32,238.36c.21,2.44,.42,4.88,.62,7.32l1.5-1.5c-2.01,.24-4.02,.47-6.03,.71-.78,.09-1.54,.62-1.5,1.5,.03,.73,.67,1.6,1.5,1.5,2.01-.24,4.02-.47,6.03-.71,.75-.09,1.58-.62,1.5-1.5-.21-2.44-.42-4.88-.62-7.32-.07-.78-.64-1.54-1.5-1.5-.76,.03-1.57,.66-1.5,1.5h0Z"/>
    <path d="M123.94,237.5c1.03,2.68,1.43,5.31,1.23,8.16-.04,.61,.49,1.33,1.1,1.45,2.25,.45,4.5,.9,6.76,1.35,.77,.15,1.66-.22,1.85-1.05,.17-.75-.22-1.68-1.05-1.85-2.25-.45-4.5-.9-6.76-1.35l1.1,1.45c.2-3.03-.25-6.12-1.34-8.95-.29-.76-1.01-1.28-1.85-1.05-.72,.2-1.34,1.08-1.05,1.85h0Z"/>
    <g class="cls-1">
      <path d="M56.77,181.66c4.69-15.59,20.74-23.57,35.91-25.25,14.34-1.6,29.05,1.63,41.58,8.72,7.09,4.01,13.42,9.24,18.65,15.49,1.24,1.48,3.35-.65,2.12-2.12-9.8-11.7-23.52-19.93-38.32-23.49s-33.12-2.72-46.8,5.73c-7.47,4.62-13.49,11.64-16.04,20.12-.56,1.85,2.34,2.64,2.89,.8h0Z"/>
    </g>
    <g class="cls-1">
      <path d="M62.65,206.73c20.52,5.21,41.86,7.22,62.99,5.88,5.98-.38,11.93-1.04,17.85-1.93,1.9-.29,1.09-3.18-.8-2.89-20.53,3.1-41.58,2.99-62.07-.36-5.78-.94-11.51-2.15-17.18-3.58-1.87-.47-2.67,2.42-.8,2.89h0Z"/>
    </g>
    <g class="cls-2">
      <path class="cls-4" d="M73.58,92.3c6.12,7.92,4.27,19.88-3.74,25.7-2.69,1.95-1.16,6.27,2.31,5.48,.39-.09,.78-.18,1.17-.26,1.58-.36,2.51-2.18,2.1-3.69-.45-1.63-2.1-2.45-3.69-2.1-.39,.09-.78,.18-1.17,.26l2.31,5.48c5.17-3.75,8.97-9.33,10.01-15.69,1.15-6.99-.75-13.86-5.06-19.43-.99-1.28-3.2-1.04-4.24,0-1.27,1.27-.99,2.96,0,4.24h0Z"/>
    </g>
    <g class="cls-2">
      <path class="cls-4" d="M51.55,51.79c-1.82,6.24-.2,12.83,2.93,18.36s8.11,10.21,12.66,14.84c4.1,4.17,8.21,8.73,10.01,14.41,.84,2.64,1.15,5.42,.55,8.14s-1.96,5.38-3.53,7.8c-3.42,5.27-7.62,10.04-11.34,15.11s-7.27,10.3-10.39,15.77c-6.2,10.86-10.69,22.74-11.52,35.3-.86,13.06,2.38,26.34,10.7,36.61,1.02,1.26,3.18,1.06,4.24,0,1.25-1.25,1.02-2.98,0-4.24-6.81-8.41-9.35-19.42-9.05-30.02,.33-11.69,4.33-22.89,9.96-33.09,3.04-5.51,6.52-10.77,10.21-15.87s7.63-9.76,11.21-14.81,6.24-10.68,5.77-16.86-3.67-12.18-7.68-17.12c-4.4-5.42-9.99-9.79-14.22-15.35-3.71-4.87-6.51-11.23-4.72-17.38,1.08-3.71-4.7-5.3-5.79-1.6h0Z"/>
    </g>
    <g class="cls-2">
      <path class="cls-4" d="M136.96,80.83c-9.96,9.71-13.9,24.94-9.85,38.25,1.12,3.68,6.91,2.11,5.79-1.6-3.43-11.28-.25-24.08,8.31-32.41,2.77-2.7-1.47-6.94-4.24-4.24h0Z"/>
    </g>
    <g class="cls-2">
      <path class="cls-4" d="M150.24,38.22c4.56,10.93-.59,22.4-6.72,31.54-6.57,9.79-14.72,18.71-18.36,30.16s-.76,23.17,5.37,33.21c6.28,10.26,15.35,18.3,23.13,27.36,8.47,9.86,14.39,21.47,17.14,34.19,.34,1.58,2.19,2.51,3.69,2.1,1.64-.45,2.44-2.1,2.1-3.69-2.49-11.53-7.52-22.52-14.68-31.9s-16.41-17.21-23.36-26.85c-6.33-8.77-10.95-19.41-8.29-30.36,2.78-11.45,11.05-20.45,17.57-29.9,7.35-10.64,13.58-24.58,8.21-37.46-.62-1.49-1.99-2.56-3.69-2.1-1.41,.39-2.72,2.19-2.1,3.69h0Z"/>
    </g>
    <g class="cls-2">
      <path class="cls-4" d="M62.21,225.55c17.21,4.74,35.06,8.61,53.02,7.7,14.68-.74,29.46-4.84,41.62-13.28,6.68-4.64,12.44-10.45,16.71-17.39l-5.48-2.31c-1.3,6.8-5.46,12.63-10.96,16.81-6.18,4.7-13.73,7.17-21.26,8.71-16.3,3.33-34.15,3.97-49.96-1.85-7.74-2.85-14.83-7.38-20.37-13.51l-3.64,4.71c12.98,5.67,26.89,8.83,41.04,9.37,13.89,.53,27.98-1.44,41.16-5.87,7.52-2.53,14.79-5.84,21.6-9.91,3.31-1.98,.3-7.17-3.03-5.18-22.68,13.55-50.43,18.16-76.33,13.03-7.33-1.45-14.56-3.63-21.42-6.62-1.37-.6-2.91-.52-3.87,.77s-.79,2.8,.23,3.94c11.57,12.78,28.75,18.54,45.59,19.42,9.33,.49,18.77-.39,27.96-2.02,8.48-1.5,17.09-4.07,24.23-9.03s13.13-12.39,14.81-21.18c.62-3.26-3.63-5.33-5.48-2.31-6.92,11.23-18.28,19.08-30.62,23.39-14.59,5.09-30.2,5.35-45.43,3.12-9.65-1.41-19.14-3.71-28.53-6.3-3.73-1.03-5.32,4.76-1.6,5.79h0Z"/>
    </g>
    <g class="cls-2">
      <path class="cls-4" d="M60.15,221.13c25.58,14.47,57.06,16.76,84.35,5.75,7.53-3.04,14.66-6.91,21.21-11.69l-3.64-4.71c-8.54,9.2-20.22,14.42-32.42,16.67-13.98,2.58-28.5,.87-42.31-2.26-8.6-1.95-17.07-4.45-25.53-6.95-3.71-1.1-5.3,4.69-1.6,5.79,15.58,4.61,31.31,9.2,47.59,10.39,13.78,1.01,27.82-.78,40.46-6.53,6.76-3.07,12.98-7.42,18.04-12.87,1.01-1.09,1.18-2.75,.23-3.94-.85-1.07-2.64-1.67-3.87-.77-11,8.03-23.61,13.57-36.96,16.21-13.5,2.67-27.56,2.11-40.85-1.42-7.59-2.02-14.86-4.98-21.7-8.84-3.37-1.9-6.39,3.28-3.03,5.18h0Z"/>
    </g>
    <g class="cls-2">
      <path class="cls-4" d="M87.03,232.97c9.46,2.87,19.39,3.46,29.15,1.94,1.6-.25,2.49-2.26,2.1-3.69-.47-1.71-2.08-2.35-3.69-2.1-8.67,1.35-17.58,.61-25.96-1.94-3.7-1.12-5.29,4.66-1.6,5.79h0Z"/>
    </g>
    <g class="cls-2">
      <path class="cls-4" d="M94.09,234.4c6.83-.12,13.66-.24,20.49-.37v-6c-8.08,1.01-16.28,.78-24.27-.82l-.8,5.89c.48,0,.96,.01,1.44,.02,3.86,.05,3.86-5.95,0-6-.48,0-.96-.01-1.44-.02-3.31-.05-4.18,5.21-.8,5.89,8.52,1.71,17.24,2.11,25.87,1.03,1.61-.2,3-1.24,3-3,0-1.6-1.37-3.03-3-3-6.83,.12-13.66,.24-20.49,.37-3.86,.07-3.87,6.07,0,6h0Z"/>
    </g>
    <g class="cls-2">
      <path class="cls-4" d="M73.77,99.25c.29,.4,.56,.8,.8,1.23,.12,.21,.24,.43,.34,.65,.05,.11,.11,.22,.16,.33,.13,.29,.1,.22-.08-.21,.01,.2,.19,.49,.26,.69,.08,.23,.15,.47,.22,.7,.12,.44,.22,.89,.3,1.35,.13,.76-.04-.59,0,.02,.02,.24,.04,.49,.05,.73,.02,.49,.02,.98-.02,1.47,0,.12-.02,.24-.03,.37-.04,.33-.02,.24,.04-.25-.07,.23-.08,.49-.13,.72-.1,.48-.23,.95-.38,1.42-.49,1.49,.57,3.34,2.1,3.69,1.65,.38,3.17-.5,3.69-2.1,1.49-4.56,.71-9.96-2.13-13.84-.48-.65-.99-1.16-1.79-1.38-.72-.2-1.67-.11-2.31,.3-1.25,.81-2.07,2.75-1.08,4.1h0Z"/>
    </g>
    <g class="cls-2">
      <path class="cls-4" d="M73.88,98.67c.16,.53,.3,1.07,.42,1.62,.06,.27,.11,.55,.16,.82,.03,.18,.25,1.02,.05,.27,.26,.98,.17,2.22,.13,3.22-.02,.52-.06,1.03-.12,1.55-.04,.35-.04,.32,.01-.09-.02,.16-.05,.31-.08,.47-.04,.24-.08,.47-.13,.7-.23,1.09-.55,2.16-.94,3.2-.56,1.47,.62,3.35,2.1,3.69,1.71,.39,3.09-.52,3.69-2.1,1.8-4.73,1.94-10.11,.5-14.96-.45-1.5-2.13-2.6-3.69-2.1s-2.57,2.08-2.1,3.69h0Z"/>
    </g>
    <g class="cls-2">
      <path class="cls-4" d="M128.97,96.8c-1.04,6.99-.69,14.04,1.23,20.85,.43,1.51,2.14,2.6,3.69,2.1s2.55-2.07,2.1-3.69c-1.61-5.71-2.08-11.93-1.23-17.66,.23-1.55-.38-3.3-2.1-3.69-1.42-.32-3.44,.44-3.69,2.1h0Z"/>
    </g>
    <g class="cls-2">
      <path class="cls-4" d="M126.79,97.97c.64,7.35,2.48,14.4,5.48,21.13,.66,1.48,2.82,1.83,4.1,1.08,1.52-.89,1.74-2.62,1.08-4.1-2.47-5.56-4.14-12.11-4.66-18.1-.14-1.56-1.28-3.08-3-3-1.51,.07-3.15,1.33-3,3h0Z"/>
    </g>
  </g>
</svg>