<?xml version="1.0" encoding="UTF-8"?>
<svg id="Layer_2" data-name="Layer 2" xmlns="http://www.w3.org/2000/svg" viewBox="0 0 86.35 85.98">
  <defs>
    <style>
      .cls-1 {
        fill: #222222;
      }
    </style>
  </defs>
  <g id="Layer_1-2" data-name="Layer 1">
    <path class="cls-1" d="M3.48,66.68c.03-9.09,.07-18.18,.1-27.27,.02-4.57,.03-9.14,.05-13.71,0-2.1,.07-4.2-.07-6.3s-.4-4.16-.51-6.25c-.18-3.49,.09-7.63,3.78-9.22,1.8-.78,3.85-.8,5.78-.84,2.22-.04,4.43-.05,6.65-.07,9.14-.07,18.27-.02,27.41,.13,10.38,.17,20.76,.49,31.13,.94,1.93,.08,1.93-2.92,0-3C58.72,.27,39.61-.1,20.51,.02c-2.41,.01-4.82,.04-7.23,.07-2.03,.03-4.1,.06-6.07,.57C3.61,1.6,.96,4.46,.29,8.13c-.76,4.17,.2,8.41,.34,12.59,.15,4.58-.01,9.19-.03,13.77-.04,10.73-.08,21.46-.12,32.19,0,1.93,2.99,1.93,3,0h0Z"/>
    <path class="cls-1" d="M78.69,3.97c3.63-1.16,4.46,3.97,4.42,6.37-.07,4.13-.34,8.25-.41,12.38-.13,8.35,.06,16.71,.55,25.05,.11,1.92,3.11,1.93,3,0-.56-9.5-.73-19.01-.48-28.52,.06-2.4,.16-4.8,.27-7.19,.09-1.97,.18-3.99-.36-5.91-.92-3.3-4.21-6.21-7.79-5.06-1.83,.59-1.05,3.49,.8,2.89h0Z"/>
    <path class="cls-1" d="M83.34,48.02c-.58,4.89-.89,9.81-.88,14.74,0,2.5,.08,5.01,.24,7.5,.14,2.18,.59,4.5,.32,6.68-.53,4.22-5.22,4.47-8.59,4.49-4.93,.03-9.86,.03-14.79,.05-5.75,.02-11.51,.04-17.26,.06-1.93,0-1.93,3.01,0,3,10.8-.04,21.6,.01,32.39-.11,3.69-.04,8.08-.55,10.19-4.01,1.17-1.92,1.19-4.26,1.02-6.42-.21-2.7-.41-5.39-.48-8.09-.16-5.97,.13-11.95,.84-17.89,.23-1.91-2.77-1.9-3,0h0Z"/>
    <path class="cls-1" d="M16.74,25.25c-4.3-2.86-3.86-12.32,1.96-13.05,2.96-.37,6.48,.98,8.32,3.35s1.82,5.53-.24,7.74c-1.17,1.26-2.71,2.06-4.35,2.54-.91,.27-1.86,.46-2.8,.56-.46,.05-.98,.14-1.44,.07-.14-.02-.52-.15-.52-.14-.08-.81-.63-1.5-1.5-1.5-.75,0-1.59,.69-1.5,1.5,.12,1.16,.66,2.09,1.69,2.66,1.09,.61,2.38,.51,3.56,.37,2.31-.28,4.63-.85,6.64-2.06,3.66-2.22,5.81-6.48,4.37-10.69s-5.63-6.83-9.99-7.36c-2.29-.28-4.67,.13-6.51,1.58-1.57,1.24-2.6,3.06-3.1,4.99-1.13,4.32,.04,9.46,3.9,12.03,1.61,1.07,3.12-1.53,1.51-2.59h0Z"/>
    <path class="cls-1" d="M14.5,31.29c-1.87,7.68-2.2,15.6-1.86,23.47,.17,3.97,.5,7.94,.86,11.9,.29,3.16,.23,6.88,3.31,8.71,1.22,.73,2.65,.99,4.04,1.12,1.53,.15,3.26,.27,4.74-.21,3.49-1.13,3.29-5.05,3.33-8.03,.11-8.28,.22-16.57,.33-24.85,.03-2.19,.16-4.4,.05-6.59-.09-1.83-.49-3.7-1.77-5.09-2.8-3.05-7.19-2.26-10.72-1.29-1.86,.51-1.07,3.41,.8,2.89,2.4-.66,6.32-1.81,8.02,.82,.76,1.17,.7,2.75,.69,4.08-.01,1.72-.05,3.45-.07,5.17-.09,6.96-.19,13.92-.28,20.87-.02,1.74-.05,3.48-.07,5.22-.01,1.03,.17,2.68-.58,3.53s-2.56,.58-3.58,.53c-1.14-.06-2.42-.17-3.41-.78-1.14-.7-1.41-1.94-1.55-3.18-.19-1.68-.32-3.38-.46-5.07-.29-3.33-.54-6.66-.68-10-.31-7.53-.03-15.09,1.76-22.43,.46-1.88-2.44-2.68-2.89-.8h0Z"/>
    <path class="cls-1" d="M37.74,31.44c-.96-1.3-2.76-1.57-3.96-.34-1.34,1.39-1.05,4.06-1.15,5.82-.27,4.63-.44,9.27-.52,13.91s-.04,9.28,.08,13.92c.1,3.68,.14,7.77,3.36,10.21,3.76,2.85,8.61,1.76,12.76,.55,.59-.17,1.16-.79,1.1-1.45-.43-4.7-.85-9.4-.91-14.12-.03-2.43,.03-4.87,.24-7.3,.16-1.85,.36-3.85,1.25-5.52,1.74-3.25,6.04-3.18,8.56-.84,3.14,2.92,3.43,7.56,3.16,11.56-.35,5.18-1.49,10.35,.06,15.45,.15,.48,.53,.94,1.05,1.05,3.09,.67,6.24,1.07,9.4,1.1,2.62,.03,5.01-.75,5.44-3.67,.21-1.42,.03-2.89-.02-4.31-.07-1.64-.14-3.28-.2-4.92-.14-3.28-.27-6.56-.41-9.85-.23-5.55,.05-11.77-2.82-16.75-2.53-4.39-7.31-6.91-12.26-7.36-6.11-.55-11.98,2.36-16.41,6.35l2.56,1.06c.19-2.28-1.39-4.26-3.41-5.14-2.53-1.1-5.31-.32-7.79,.5-1.82,.6-1.04,3.5,.8,2.89,1.62-.54,3.45-1.23,5.18-.85,1.26,.28,2.34,1.25,2.23,2.6s1.67,1.86,2.56,1.06c3.42-3.08,7.77-5.4,12.45-5.53,4.03-.11,8.3,1.5,10.77,4.78,2.85,3.79,2.85,8.91,3.03,13.43,.23,5.58,.46,11.16,.69,16.74,.06,1.38,.18,2.78,.16,4.17s-.52,1.77-1.87,1.8c-3.11,.05-6.23-.34-9.26-1l1.05,1.05c-1.58-5.2-.08-10.59,.11-15.87,.16-4.46-.75-9.49-4.24-12.6-2.95-2.62-7.7-3.44-10.99-.94-3.69,2.81-3.81,8.26-3.99,12.47-.26,6.18,.3,12.36,.86,18.51l1.1-1.45c-3.31,.97-8.34,2.47-10.95-.79-1.15-1.43-1.24-3.44-1.31-5.2-.09-2.2-.13-4.4-.15-6.6-.06-4.56-.02-9.12,.11-13.67,.07-2.32,.16-4.64,.28-6.95,.06-1.16,.12-2.32,.2-3.47,.03-.5,.06-.99,.1-1.49,.02-.29,.04-.57,.06-.86,.25-.47,.01-.68-.7-.62,1.13,1.54,3.74,.04,2.59-1.51h0Z"/>
    <path class="cls-1" d="M.54,66.97c-.55,4.41-.96,9.11,1.32,13.13s6.02,5.02,10.23,5.33c10.09,.75,20.25,.7,30.34,.03,1.92-.13,1.93-3.13,0-3-9.15,.61-18.33,.67-27.48,.15-3.75-.21-8.1-.11-10.31-3.71s-1.59-7.99-1.1-11.94c.24-1.91-2.77-1.89-3,0H.54Z"/>
  </g>
</svg>