<?xml version="1.0" encoding="UTF-8"?>
<svg id="Layer_2" data-name="Layer 2" xmlns="http://www.w3.org/2000/svg" viewBox="0 0 99.01 79.59">
  <defs>
    <style>
      .cls-1 {
        fill: #E2FFDC;
      }

      .cls-2 {
        fill: #455c40;
      }
    </style>
  </defs>
  <g id="Layer_1-2" data-name="Layer 1">
    <g>
      <path class="cls-1" d="M48.96,72.99c-7.42,.03-15.06-2.58-20.03-8.08-4.97-5.51-6.69-14.11-3.15-20.63,1.69-3.1,4.38-5.54,7.22-7.65,5.97-4.44,12.93-7.74,20.33-8.58,7.39-.84,15.23,.97,20.96,5.71,5.73,4.74,9.03,12.57,7.55,19.87-1.44,7.08-7.06,12.79-13.58,15.9-6.52,3.11-13.89,3.95-21.11,4.19"/>
      <path class="cls-2" d="M48.96,70.96c-9.52-.03-19.69-4.73-22.4-14.54-1.24-4.48-.63-9.23,2.17-13.01,3.1-4.17,8.02-7.27,12.59-9.59,9.2-4.66,20.67-5.77,29.66,0,7.94,5.1,11.81,15.75,7.03,24.29-6.09,10.87-19.51,13.16-30.86,13.57-2.6,.09-2.61,4.14,0,4.05,12.05-.43,25.06-2.86,32.74-13.1,3.35-4.47,4.88-9.99,4.1-15.54s-3.52-10.51-7.55-14.16c-9.1-8.23-22.61-8.72-33.55-4.25-5.58,2.28-11.11,5.62-15.35,9.95-4.01,4.09-6.15,9.48-5.54,15.22,.67,6.33,3.98,11.87,9.08,15.65s11.59,5.48,17.9,5.49c2.61,0,2.61-4.04,0-4.05h0Z"/>
    </g>
    <path class="cls-2" d="M84.09,49.19c-2.46-15.14-4.92-30.28-7.39-45.43-.18-1.08-1.52-1.68-2.49-1.41-1.15,.32-1.59,1.41-1.41,2.49,2.46,15.14,4.92,30.28,7.39,45.43,.18,1.08,1.52,1.68,2.49,1.41,1.15-.32,1.59-1.41,1.41-2.49h0Z"/>
    <path class="cls-2" d="M74.02,6.36c7.98,1.5,15.98,.53,23.44-2.63,1.01-.43,1.23-1.91,.73-2.77-.61-1.04-1.76-1.15-2.77-.73-6.38,2.69-13.52,3.5-20.32,2.22-1.07-.2-2.18,.3-2.49,1.41-.27,.99,.33,2.29,1.41,2.49h0Z"/>
    <path class="cls-2" d="M76.24,15.18c5.82,.75,11.73,.37,17.44-1.01,2.53-.61,1.46-4.52-1.08-3.91-5.37,1.3-10.88,1.57-16.36,.87-1.09-.14-2.02,1.03-2.02,2.02,0,1.21,.94,1.89,2.02,2.02h0Z"/>
    <path class="cls-2" d="M34.69,46.38c2.61,0,2.61-4.05,0-4.05s-2.61,4.05,0,4.05h0Z"/>
    <path class="cls-2" d="M69.99,44.48c2.61,0,2.61-4.05,0-4.05s-2.61,4.05,0,4.05h0Z"/>
    <path class="cls-2" d="M46.49,49.19c3.17,2.96,8.47,2.94,11.55-.16,.75-.75,.81-2.12,0-2.86s-2.07-.8-2.86,0c-.14,.14-.28,.27-.43,.4-.21,.18,.07-.07,.13-.1-.08,.04-.16,.11-.24,.16-.15,.09-.3,.18-.45,.26-.09,.05-.17,.09-.26,.13-.32,.15-.01-.04,.11-.04-.15,0-.35,.13-.5,.17-.19,.06-.38,.1-.57,.14-.09,.02-.2,.03-.29,.05,.07-.02,.47-.05,.19-.03-.19,.01-.39,.03-.58,.04-.18,0-.35,0-.53-.01-.1,0-.19-.02-.29-.02-.28-.02,.13,0,.19,.03-.35-.1-.72-.14-1.07-.26-.08-.03-.19-.1-.27-.1,.13,0,.42,.19,.11,.04-.16-.07-.31-.16-.46-.24-.16-.1-.32-.23-.49-.32,.07,.03,.34,.28,.13,.1-.09-.08-.18-.15-.26-.23-.77-.72-2.11-.82-2.86,0s-.83,2.09,0,2.86h0Z"/>
    <path class="cls-2" d="M58.73,73.12v2.28c-.01,.28,.05,.54,.17,.78,.08,.25,.22,.47,.42,.65,.18,.2,.4,.34,.65,.42,.24,.13,.5,.18,.78,.17,.52-.02,1.07-.2,1.43-.59s.59-.88,.59-1.43v-2.28c.01-.28-.05-.54-.17-.78-.08-.25-.22-.47-.42-.65-.18-.2-.4-.34-.65-.42-.24-.13-.5-.18-.78-.17-.52,.02-1.07,.2-1.43,.59s-.59,.88-.59,1.43h0Z"/>
    <path class="cls-2" d="M60.22,77.77l2.73,.46c.27,.08,.54,.1,.81,.04,.27-.01,.52-.09,.75-.24,.24-.13,.43-.3,.57-.52,.18-.2,.3-.43,.36-.69,.12-.52,.09-1.1-.2-1.56-.27-.42-.7-.84-1.21-.93l-2.73-.46c-.27-.08-.54-.1-.81-.04-.27,.01-.52,.09-.75,.24-.24,.13-.43,.3-.57,.52-.18,.2-.3,.43-.36,.69-.12,.52-.09,1.1,.2,1.56,.27,.42,.7,.84,1.21,.93h0Z"/>
    <path class="cls-2" d="M44.61,74.25v2.5c0,.52,.23,1.06,.59,1.43,.18,.2,.4,.34,.65,.42,.24,.13,.5,.18,.78,.17,.52-.02,1.07-.2,1.43-.59s.59-.88,.59-1.43v-2.5c0-.52-.23-1.06-.59-1.43-.18-.2-.4-.34-.65-.42-.24-.13-.5-.18-.78-.17-.52,.02-1.07,.2-1.43,.59s-.59,.88-.59,1.43h0Z"/>
    <path class="cls-2" d="M46.08,74.93l-2.96,.69c-.48,.11-.96,.51-1.21,.93-.15,.23-.23,.48-.24,.75-.06,.27-.05,.54,.04,.81,.16,.49,.46,.96,.93,1.21,.49,.26,1.01,.33,1.56,.2l2.96-.69c.48-.11,.96-.51,1.21-.93,.15-.23,.23-.48,.24-.75,.06-.27,.05-.54-.04-.81-.16-.49-.46-.96-.93-1.21-.49-.26-1.01-.33-1.56-.2h0Z"/>
    <path class="cls-2" d="M76.89,54.95c4.11,.39,8.41,.76,12.41-.5,3.39-1.07,6.56-3.24,8.16-6.5,.48-.98,.27-2.19-.73-2.77-.89-.52-2.29-.26-2.77,.73-3.07,6.27-11.3,5.55-17.08,4.99-1.09-.1-2.02,1.01-2.02,2.02,0,1.18,.93,1.92,2.02,2.02h0Z"/>
    <path class="cls-2" d="M28.26,54.54c-5.58,1.84-11.92,.33-16.02-3.94-1.81-1.88-4.67,.98-2.86,2.86,5.04,5.23,13.05,7.26,19.96,4.98,1.04-.34,1.71-1.4,1.41-2.49-.28-1.02-1.45-1.76-2.49-1.41h0Z"/>
    <path class="cls-2" d="M94.76,44.93s-.05,.05-.08,.08l.41-.32s-.08,.05-.13,.08l.48-.2c-.06,.02-.12,.04-.18,.05l.54-.07c-.07,0-.14,0-.21,0l.54,.07c-.09-.01-.17-.04-.26-.07l.48,.2c-.09-.04-.18-.09-.26-.15l.41,.32c-.08-.06-.15-.13-.21-.21l.32,.41c-.04-.06-.08-.12-.11-.19l.2,.48c-.03-.07-.05-.14-.06-.21l.07,.54c0-.06,0-.12,0-.18l-.07,.54c.01-.08,.03-.15,.06-.22l-.2,.48c.03-.07,.07-.13,.11-.2l-.32,.41c.06-.07,.12-.14,.19-.19l-.41,.32c.08-.06,.17-.11,.26-.15l-.48,.2c.11-.05,.22-.08,.34-.1l-.54,.07c.12-.02,.24-.02,.35,0l-.54-.07c.09,.01,.18,.04,.27,.07l-.48-.2c.08,.04,.16,.08,.23,.13l-.41-.32c.08,.06,.14,.13,.2,.2l-.32-.41c.07,.09,.13,.19,.17,.29l-.2-.48c.05,.12,.08,.25,.1,.38l-.07-.54c.02,.14,.02,.29,0,.43l.07-.54c-.02,.14-.06,.28-.11,.41l.2-.48c-.05,.11-.1,.21-.17,.3-.15,.23-.23,.48-.24,.75-.06,.27-.05,.54,.04,.81,.06,.26,.18,.49,.36,.69,.14,.22,.33,.39,.57,.52l.48,.2c.36,.1,.72,.1,1.08,0l.48-.2c.3-.18,.55-.42,.73-.73,.18-.24,.28-.54,.39-.81,.05-.12,.08-.25,.1-.38,.05-.29,.11-.6,.08-.9s-.05-.62-.15-.9c-.07-.21-.17-.43-.26-.63-.03-.06-.06-.12-.1-.17-.16-.24-.34-.49-.56-.68-.17-.14-.34-.29-.53-.4s-.41-.19-.62-.27c-.05-.02-.1-.04-.16-.05-.23-.05-.47-.08-.7-.1-.28-.02-.6,.04-.86,.09-.28,.05-.54,.18-.79,.29s-.48,.31-.69,.48-.38,.42-.52,.63c-.03,.05-.06,.1-.08,.15-.09,.2-.2,.41-.25,.63,0,.03-.01,.05-.01,.08-.03,.19-.07,.4-.08,.6,0,.03,0,.05,0,.08,.01,.2,.05,.41,.08,.6,0,.05,.02,.1,.04,.15,.07,.18,.15,.37,.23,.55,.01,.03,.03,.05,.04,.08,.14,.23,.31,.46,.51,.64s.44,.39,.7,.51c.2,.09,.41,.2,.63,.26,.03,0,.06,.02,.1,.02,.2,.04,.4,.06,.6,.08,.06,0,.12,0,.18,0,.2-.02,.41-.04,.6-.08,.03,0,.06-.01,.08-.02,.18-.06,.37-.14,.54-.23,.03-.01,.05-.02,.08-.04,.2-.12,.39-.26,.55-.43,.2-.18,.34-.4,.42-.65,.13-.24,.18-.5,.17-.78,.01-.28-.05-.54-.17-.78-.08-.25-.22-.47-.42-.65-.39-.35-.89-.62-1.43-.59l-.54,.07c-.34,.1-.64,.27-.89,.52h0Z"/>
    <path class="cls-2" d="M8.98,50.25s-.04,.03-.06,.05l.41-.32c-.08,.06-.17,.12-.27,.16l.48-.2c-.1,.04-.21,.07-.32,.09l.54-.07c-.13,.02-.26,.02-.39,0l.54,.07c-.13-.02-.25-.05-.37-.1l.48,.2c-.1-.04-.2-.1-.29-.17l.41,.32c-.07-.06-.14-.12-.2-.2l.32,.41c-.06-.08-.11-.16-.15-.25l.2,.48c-.03-.08-.05-.16-.07-.25l.07,.54c-.01-.09,0-.19,0-.28l-.07,.54c.02-.1,.04-.2,.08-.3l-.2,.48c.05-.11,.11-.22,.18-.31l-.32,.41c.07-.09,.15-.17,.24-.24l-.41,.32c.08-.06,.17-.11,.26-.15l-.48,.2c.08-.03,.16-.05,.24-.06l-.54,.07c.08,0,.15,0,.23,0l-.54-.07c.08,.01,.15,.03,.22,.06l-.48-.2c.07,.03,.14,.07,.2,.12l-.41-.32c.07,.05,.13,.11,.18,.18l-.32-.41c.06,.08,.11,.17,.15,.26l-.2-.48c.04,.11,.08,.22,.09,.34l-.07-.54c.01,.1,.01,.2,0,.3l.07-.54c-.01,.09-.04,.18-.07,.26l.2-.48c-.03,.06-.06,.12-.11,.18l.32-.41c-.04,.05-.08,.09-.13,.14l.41-.32s-.04,.03-.05,.04c-.24,.13-.43,.3-.57,.52-.18,.2-.3,.43-.36,.69-.08,.27-.1,.54-.04,.81,.01,.27,.09,.52,.24,.75l.32,.41c.25,.25,.55,.42,.89,.52l.54,.07c.37,0,.71-.09,1.02-.28,.16-.11,.31-.23,.46-.36,.02-.02,.04-.04,.06-.06,.02-.02,.03-.04,.05-.05,.13-.14,.25-.31,.36-.47,.03-.05,.06-.09,.08-.14,.09-.2,.2-.41,.25-.62s.08-.46,.1-.68c0-.06,0-.11,0-.17-.01-.28-.04-.58-.13-.86-.07-.21-.16-.42-.26-.63-.02-.05-.05-.1-.08-.15-.15-.23-.31-.47-.53-.65-.17-.14-.34-.29-.53-.4s-.42-.2-.62-.27c-.06-.02-.11-.03-.17-.04-.19-.03-.41-.07-.6-.08-.04,0-.08,0-.11,0-.57,.03-.86,.13-1.36,.36-.06,.03-.11,.06-.17,.09-.1,.06-.19,.14-.28,.21s-.19,.14-.28,.22c-.05,.04-.09,.09-.13,.14-.15,.18-.31,.37-.43,.57-.16,.26-.28,.55-.35,.84s-.13,.61-.1,.92c.05,.56,.12,.86,.38,1.36,.03,.05,.06,.1,.09,.15,.13,.18,.27,.38,.43,.54,.21,.2,.44,.39,.7,.52,.21,.11,.44,.2,.66,.28,.07,.02,.14,.04,.21,.06,.3,.06,.63,.12,.95,.1,.24-.02,.48-.05,.72-.1,.07-.02,.14-.04,.21-.06,.19-.07,.46-.17,.66-.29s.39-.28,.57-.44c.2-.18,.34-.4,.42-.65,.13-.24,.18-.5,.17-.78,.01-.28-.05-.54-.17-.78-.08-.25-.22-.47-.42-.65-.39-.35-.89-.62-1.43-.59l-.54,.07c-.34,.1-.64,.27-.89,.52h0Z"/>
    <path class="cls-2" d="M11.11,49.18c-2.36-7.28-4.73-14.56-7.09-21.84-.8-2.47-4.71-1.41-3.91,1.08,2.36,7.28,4.73,14.56,7.09,21.84,.8,2.47,4.71,1.41,3.91-1.08h0Z"/>
  </g>
</svg>