<?xml version="1.0" encoding="UTF-8"?>
<svg id="Layer_2" data-name="Layer 2" xmlns="http://www.w3.org/2000/svg" viewBox="0 0 90.93 88.29">
  <defs>
    <style>
      .cls-1 {
        fill: #eeeeee;
      }
    </style>
  </defs>
  <g id="Layer_1-2" data-name="Layer 1">
    <path class="cls-1" d="M33.33,83.9c.01,.07,.02,.14,.03,.22l-.05-.4c.04,.28,.05,.56,.01,.84l.05-.4c-.02,.18-.07,.35-.13,.51l.15-.36c-.05,.12-.12,.24-.2,.35l.23-.3c-.08,.1-.17,.19-.27,.27l.3-.23c-.12,.09-.25,.17-.4,.23l.36-.15c-.21,.08-.43,.14-.65,.17l.4-.05c-.47,.06-.94,.04-1.41-.02l.4,.05c-.17-.02-.35-.05-.52-.09-.4-.08-.79-.06-1.16,.15-.31,.18-.61,.54-.69,.9-.09,.38-.07,.81,.15,1.16,.2,.31,.52,.62,.9,.69,1,.19,2.03,.3,3.03,.05,1.11-.27,1.99-1.08,2.32-2.17,.22-.72,.15-1.47,.02-2.2-.06-.35-.39-.72-.69-.9-.32-.19-.8-.27-1.16-.15s-.71,.34-.9,.69c-.2,.38-.22,.74-.15,1.16h0Z"/>
    <path class="cls-1" d="M30.53,84.5c-1.72-.04-3.29-1.43-4.56-2.44-1.43-1.14-2.91-2.14-4.4-3.2-3.44-2.43-6.76-5.19-9.57-8.34s-5.08-6.54-6.51-10.35c-.74-1.98-.84-3.98-1.18-6.04-.28-1.68-1.91-4.04-1.14-5.7,.81-1.74-1.77-3.26-2.59-1.51-.77,1.66-.72,3.2-.11,4.91s.97,3.32,1.19,5.15c.44,3.61,2.02,6.95,3.95,10.01,4,6.34,9.77,11.37,15.96,15.5,2.8,1.87,5.36,4.92,8.96,5,1.93,.05,1.93-2.95,0-3h0Z"/>
    <path class="cls-1" d="M3.36,47.44c-.17-8.91,2.34-18.09,7.53-25.39,2.84-4,6.69-7.17,10.66-9.99,1.76-1.25,3.27-2.69,4.95-4.02,1.9-1.51,4.27-1.72,6.57-2.2,4.56-.95,9.45-3.84,14.21-2.52,1.86,.52,2.66-2.38,.8-2.89-4.55-1.26-9.34,.61-13.65,1.96-2.41,.75-4.99,.87-7.34,1.85-2.14,.89-3.57,2.62-5.35,4.03-2.1,1.66-4.36,3.1-6.42,4.82s-3.95,3.53-5.61,5.6c-3,3.75-5.23,8.04-6.79,12.58C1.14,36.43,.26,41.96,.36,47.44c.04,1.93,3.04,1.93,3,0h0Z"/>
    <path class="cls-1" d="M49.11,3.33c1.7-.03,3.4,0,5.06,.4,1.88,.47,3.64,1.31,5.49,1.88,1.64,.51,3.39,.84,4.75,1.95s2.33,2.35,3.71,3.32c1.5,1.06,3.21,1.76,4.75,2.76s2.89,2.42,4.07,3.87c2.49,3.06,4.45,6.54,6.13,10.11,1.83,3.9,3.87,7.85,4.48,12.17,.27,1.9,3.16,1.09,2.89-.8-.58-4.07-2.44-7.84-4.16-11.53s-3.74-7.55-6.33-10.93c-1.17-1.53-2.42-3.01-3.92-4.25s-3.25-2.12-4.96-3.09-2.87-2.27-4.29-3.54-2.84-1.88-4.58-2.41c-2.25-.69-4.43-1.62-6.68-2.26-2.09-.6-4.25-.7-6.41-.66-1.93,.04-1.93,3.04,0,3h0Z"/>
    <path class="cls-1" d="M87.73,39.4c.11,4.3,.39,8.62,.04,12.91s-1.65,8.04-3.72,11.79c-3.53,6.39-8.2,11.9-14.61,15.54-1.93,1.09-3.89,2.05-5.75,3.25s-3.66,2.32-5.88,2.39c-1.93,.06-1.93,3.06,0,3,4.31-.13,7.43-3.14,11.11-4.97s6.9-4.08,9.76-6.88,5.08-5.88,7.05-9.21c2.27-3.84,4.09-7.76,4.73-12.21,.75-5.18,.4-10.41,.27-15.62-.05-1.93-3.05-1.93-3,0h0Z"/>
    <path class="cls-1" d="M33.39,78.24c.03,1.43,.07,2.87,.1,4.3,.02,.78,.68,1.54,1.5,1.5s1.52-.66,1.5-1.5c-.03-1.43-.07-2.87-.1-4.3-.02-.78-.68-1.54-1.5-1.5s-1.52,.66-1.5,1.5h0Z"/>
    <path class="cls-1" d="M34.63,75.79c-2.74,.08-5.64,.71-8.36,.14-2.35-.49-3.33-1.85-4.21-3.92-1.48-3.49-2.74-9.41-7.32-9.87v3c1.59-.04,3.33-.3,4.86,.25,1.26,.46,2.08,1.45,2.81,2.52,1.6,2.37,3.14,4.46,6.15,4.95,1.45,.24,2.91,.28,4.37,.07,.94-.14,2.21-.34,2.93-1.02s.65-1.56,.8-2.42c.25-1.47,.45-2.86,1.62-3.88,1.45-1.28-.67-3.39-2.12-2.12-1.1,.96-1.73,2.19-2.06,3.6-.15,.66-.29,1.33-.39,2-.04,.29-.04,1.01-.17,1.08-.15,.09,.35-.65,.49-.58-.07-.04-.47,.13-.57,.16-.6,.16-1.18,.28-1.8,.31-1.18,.06-2.55,.04-3.66-.42-2.21-.91-3.05-3.8-4.68-5.38-2.4-2.32-5.46-2.19-8.56-2.12-1.97,.04-1.89,2.81,0,3,.43,.04,1.03,.58,1.42,1.1,.61,.81,1.05,1.78,1.46,2.7,.87,2,1.49,4.12,2.54,6.04,2.94,5.35,9.44,3.95,14.47,3.8,1.93-.06,1.93-3.06,0-3h0Z"/>
    <path class="cls-1" d="M37.45,63.52c-3.12,.41-6.19-.81-8.82-2.4s-5.26-3.83-6.91-6.56c-.83-1.36-1.22-2.84-1.63-4.37-.5-1.85-.98-3.73-1.18-5.64-.47-4.33,1.71-7.86,4.24-11.18,1.17-1.54-1.43-3.03-2.59-1.51-2.15,2.83-4.14,5.94-4.62,9.54s.55,7.06,1.47,10.36c.77,2.74,1.95,5.02,3.85,7.16,2.02,2.26,4.53,4.18,7.22,5.56s5.88,2.45,8.98,2.05c.81-.11,1.49-.61,1.5-1.5,0-.73-.7-1.6-1.5-1.5h0Z"/>
    <path class="cls-1" d="M52.52,66.23c.57,1.45,1.3,2.78,2.08,4.13,.65,1.13,1.26,2.26,1.47,3.57,.27,1.72-.16,3.5-.25,5.22-.11,2.15-.06,4.31-.01,6.46,.05,1.93,3.05,1.93,3,0-.05-2.15-.1-4.31,.01-6.46,.1-1.94,.47-3.82,.18-5.76-.45-2.96-2.51-5.24-3.58-7.96-.3-.75-1-1.28-1.85-1.05-.71,.2-1.35,1.09-1.05,1.85h0Z"/>
    <path class="cls-1" d="M54.19,66.6c4.17-.11,8.5-.69,12.12-2.91,1.78-1.09,3.28-2.51,4.38-4.29s1.73-3.64,2.49-5.5c1.72-4.18,2.87-8.55,2.76-13.11-.1-3.93-2.03-6.73-4.71-9.43-1.36-1.37-3.49,.75-2.12,2.12,1.05,1.06,2.12,2.13,2.86,3.44,.81,1.45,1,3.05,.97,4.69-.08,3.91-1.02,7.55-2.5,11.14-1.35,3.27-2.47,6.39-5.63,8.34s-6.95,2.4-10.6,2.5c-1.93,.05-1.93,3.05,0,3h0Z"/>
    <path class="cls-1" d="M24.28,31.64c0-.62-.04-1.26-.26-1.84-.12-.31-.15-.35-.25-.67-.07-.23,0,.2-.03-.08-.02-.15-.01-.31-.01-.46,0-1.23,0-2.36-.33-3.56-.13-.46-.24-.91-.26-1.27-.01-.16-.02-.32-.01-.47,0,.19,.04,.11,0,.02,.04,.13-.09,.15,.04-.03,.05-.07,.09-.14,.14-.21,.1-.14-.14,.17,.04-.05,.11-.13,.21-.27,.31-.4,.11-.15,.21-.3,.3-.46,.32-.64,.37-1.23,.26-1.93-.12-.8-1.13-1.24-1.85-1.05-.86,.24-1.17,1.04-1.05,1.85-.02-.11-.02-.19,0-.3-.03,.3,.07-.1,0,.02-.04,.07-.09,.14-.13,.21-.12,.19,.14-.18,0,0-.31,.42-.62,.78-.83,1.27-.45,1.07-.19,2.35,.1,3.43,.14,.51,.26,.85,.28,1.33,.02,.54,0,1.07,0,1.61,0,.58,.06,1.15,.27,1.69,.23,.58,.28,.75,.29,1.36,0,1.93,3.01,1.93,3,0h0Z"/>
    <path class="cls-1" d="M24.43,21.86c.43-.01,.85-.05,1.28-.05,.11,0,.21,0,.32,0,.07,0,.24,.01,.08,0,.1,.01,.21,.04,.31,.06,.05,.01,.23,.07,.09,.01,.87,.34,1.64,.93,2.46,1.36,.18,.09,.37,.18,.55,.28,.02,.01,.25,.16,.17,.1s.12,.11,.15,.12c.4,.33,.78,.62,1.25,.82,.37,.16,.74,.23,1.13,.3,.17,.03,.34,.1,.51,.12,.22,.03-.2-.08,0,0,.17,.07-.2-.21,.06,.04,.57,.54,1.57,.61,2.12,0s.6-1.54,0-2.12c-.75-.72-1.6-.81-2.54-1.06-.13-.03-.26-.09-.07,0-.08-.04-.16-.09-.24-.14,.13,.08,0,0-.05-.04-.1-.08-.19-.16-.29-.24-.44-.35-.88-.59-1.37-.85-.94-.5-1.83-1.11-2.83-1.5s-2.06-.25-3.08-.22c-.78,.02-1.54,.67-1.5,1.5s.66,1.53,1.5,1.5h0Z"/>
    <path class="cls-1" d="M57.77,25.61c.56,0,1.1,.02,1.65-.07s1.01-.33,1.49-.57c.8-.4,1.65-.79,2.45-1.11,.91-.37,1.86-.63,2.77-.99,.47-.19,.93-.4,1.38-.63,.06-.03,.54-.24,.37-.18,.1-.03,.19-.06,.29-.08-.16,.02-.15,.04,.03,.03,.81,.06,1.5-.73,1.5-1.5,0-.86-.69-1.44-1.5-1.5-1.02-.07-1.87,.51-2.75,.92,.12-.04,.08-.03-.12,.05-.12,.05-.24,.09-.35,.13-.24,.09-.48,.17-.72,.25-.45,.15-.9,.3-1.35,.47-.98,.37-1.93,.81-2.89,1.24-.37,.17-.8,.43-1.07,.51-.26,.08-.78,.03-1.19,.03-.81,0-1.5,.68-1.5,1.5s.69,1.51,1.5,1.5h0Z"/>
    <path class="cls-1" d="M66.95,20.51c-.04,1.16,.45,2.14,.81,3.2s.67,2.12,1.04,3.16c.16,.44,.44,.89,.5,1.35s0,.97,0,1.44c-.01,.19-.01,.21,0,.08-.03,.12-.06,.23-.1,.35-.06,.19-.1,.38-.15,.58-.04,.21-.09,.41-.14,.62-.09,.34,.18-.13-.06,.09-.6,.55-.55,1.57,0,2.12,.6,.6,1.52,.55,2.12,0,.79-.72,.92-1.81,1.18-2.79,.15-.56,.14-1.13,.14-1.7,0-.68,.01-1.35-.23-1.99-.42-1.12-.84-2.24-1.2-3.39-.31-.98-.96-2.13-.93-3.12,.03-.81-.71-1.5-1.5-1.5-.84,0-1.47,.69-1.5,1.5h0Z"/>
    <path class="cls-1" d="M34.57,25.92c1.93-.05,3.93,.06,5.84-.14,1.78-.18,3.5-.79,5.26-1.05s3.71-.56,5.52-.34c1.3,.16,3.05,.14,4.08,1.05,1.44,1.27,3.57-.84,2.12-2.12-1.34-1.18-2.98-1.53-4.71-1.75-.85-.11-1.72-.26-2.57-.28-1.12-.02-2.23,.23-3.34,.34-1.96,.19-3.88,.58-5.8,1.01-2.03,.46-4.34,.22-6.41,.27-1.93,.05-1.93,3.05,0,3h0Z"/>
  </g>
</svg>