<?xml version="1.0" encoding="UTF-8"?>
<svg id="Layer_2" data-name="Layer 2" xmlns="http://www.w3.org/2000/svg" viewBox="0 0 56.86 43.65">
  <defs>
    <style>
      .cls-1 {
        fill: #f2f2f2;
      }

      .cls-2 {
        fill: #fcee21;
      }

      .cls-3 {
        opacity: 0;
      }
    </style>
  </defs>
  <g id="Layer_1-2" data-name="Layer 1">
    <g class="cls-3">
      <path class="cls-2" d="M13.06,30.93l.91-.12c-.22,.01-.45,.01-.67,0l.94,.11c-.22-.05-.43-.11-.64-.19l.82,.33c-.2-.1-.4-.22-.59-.34l.66,.53c-.18-.15-.35-.31-.52-.47l-.24-.26c-.41-.48-.31-.35,.28,.38,0-.02-.53-.92-.54-.93,.12,.03,.45,1.44,.19,.44-.08-.22-.14-.45-.19-.68-.12-.62-.1-.46,.05,.47-.1-.03-.01-1.19-.02-1.3-.05-1.41-.35,1.25,0-.12,.22-.85,.45-1.68,.73-2.52,.34-1.03-.05,.03-.11,.2,.14-.41,.37-.82,.56-1.21,.42-.86,.86-1.71,1.32-2.55,.66-1.2,1.36-2.38,2.15-3.51l.22-.3c.38-.51,.29-.4-.26,.33,.19-.06,.57-.68,.71-.84,.52-.58,1.41-1.11,1.83-1.74-.58,.86-.81,.6-.2,.21,.25-.16,.5-.31,.77-.45l.32-.16c.58-.27,.43-.21-.45,.18,.16,.05,.91-.29,1.08-.33l.4-.09c.66-.12,.53-.1-.4,.05,0-.03,1.13-.03,1.21-.03l.4,.02c.67,.06,.54,.04-.39-.07,.33,.14,.85,.17,1.19,.26,.4,.1,.78,.25,1.17,.36,1.33,.39-1.14-.63,.08,.03,.73,.39,1.45,.76,2.13,1.23,.33,.22,1.46,.71,.14,.06,.29,.14,.56,.46,.81,.68,.69,.6,1.34,1.24,1.98,1.9,1.12,1.17,2.17,2.42,3.2,3.68,.22,.27,.45,.55,.67,.82l.26,.32c.4,.51,.35,.43-.18-.23,.24,.12,.55,.8,.69,1.03,.14,.23,.27,.47,.38,.72-.33-.82-.39-.91-.19-.29l-.08-.8c.02,.26,.03,.52,.02,.78l.12-.83c-.05,.26-.11,.51-.19,.76-.2,.94,0-.49,.16-.34,.06,.06-.56,.96-.61,1.04-.66,1.17,.9-.87-.06,.07-.29,.28-.55,.59-.84,.87-.19,.18-.66,.75-.92,.8,.68-.51,.76-.58,.23-.2-.22,.16-.45,.31-.68,.45-.37,.23-1.4,1.03-1.8,.96l.68-.29c-.25,.1-.51,.19-.77,.27-.39,.12-.78,.2-1.17,.31-1.31,.39,1.37-.02,0,.03-.4,.01-.8,.04-1.2,.03l-.4-.02c-.69-.06-.54-.04,.45,.08-.18-.16-.79-.18-1.02-.24l-.33-.11c-.6-.22-.44-.15,.46,.21-.2-.25-.93-.52-1.23-.68-1.08-.59,.98,.95,.1,.1-.22-.21-.71-.89-.98-.99,.58,.2,.68,1.02,.31,.39-.21-.35-.41-.89-.66-1.19l.35,.8c-.07-.21-.14-.43-.19-.65-.35-1,.17,1.56,0-.11-.12-1.18-.42,1.35-.04,.23,.52-1.55-.55,.69,0-.18,.12-.19,.24-.4,.35-.6,.53-.9-.9,1.12,.17-.12,.77-.9-1.17,.65-.14,.08,1.42-.77-.89,.1,.09-.13l.32-.1c.63-.14,.43-.12-.61,.04,.22-.02,.45-.02,.67-.01-1.03-.17-1.22-.2-.58-.06l-3.59-8.81c-.15,.22-.3,.44-.45,.65l.45-.59c.04,.17-.8,.89-.94,1.03-.28,.28-.59,.53-.88,.81-.34,.29-.2,.18,.43-.32-.16,.12-.32,.23-.49,.34-.39,.26-.78,.5-1.19,.73s-1.42,.4-.09,.07c1.7-.42,3.8,.57,4.61,2.07l.44,1c.11,1.19,.16,1.48,.15,.85-.06,1.78-.05,1.11,.01,.53-.43,.94-.53,1.21-.3,.8,.24-.4,.06-.19-.54,.64,.74-.71-1.33,.8-.26,.14,.3-.19,.6-.38,.91-.57,2-1.21,3.81-2.55,5.03-4.6,1.54-2.58,.78-5.95-1.55-7.74-2.16-1.67-6-1.86-7.88,.47-.53,.66-1.11,1.21-1.74,1.79-.34,.29-.19,.17,.45-.35-.21,.15-.42,.29-.64,.42-.33,.2-.67,.37-1.01,.56-1.11,.63,1.24-.36,.02,0-.37,.11-.73,.24-1.1,.33-.25,.06-.5,.12-.75,.16l.84-.1c-.28-.13-1.19,.08-1.53,.08l6,6c-.22,1.83,.1,.05,.2-.35,.28-1.11-.61,1.03,.02-.03,.13-.22,.58-.78,.63-1.02-.54,.68-.6,.77-.18,.29,.18-.2,.37-.38,.57-.56,2.18-2.05,2.23-5.59,.47-7.88-1.86-2.41-5.06-2.96-7.74-1.55-.52,.27-1.06,.61-1.62,.79,1.55-.5-.38,.1-.67,.19-1.15,.37-2.32,.63-3.51,.81l7.38,4.19c-.08-.23-.3-1.3-.14-.27,.05,.5,.07,.58,.06,.25,0-.47-.04-.25-.14,.68,.06-.13,.2-.57,.18-.71-.37,.8-.45,1-.23,.6,.23-.39,.09-.23-.42,.46,1.37-1.73,2.16-3.59,1.54-5.84-.58-2.1-2.17-3.51-4.19-4.19-3.22-1.08-6.96,.01-9.36,2.34C.43,14.19-.42,17.62,.19,21.05c1.05,5.98,6.55,9.16,12.02,10.31,.18,.04,1.33,.19,1.38,.36-.52-.12-.96-.39-1.31-.8,.45,.45,.37,.33-.25-.37-.51-.95-.65-1.92-.42-2.92,.39-.89,.46-1.04,.19-.46-.57,1.39-.99,2.13-1.04,3.67-.16,4.42,3.29,7.49,7.52,7.82,.89,.07,1.61-.03,2.55-.2,.27-.05,1.35-.44,1.56-.32-.52,.15-1.04,.15-1.56-.01l-1.83-1.07c-.5-.49-.85-1.07-1.06-1.74-.1-1.15-.15-1.41-.16-.78,.19-1.12,.2-1.37,.03-.76,.15-.65,.47-1.2,.96-1.66-.41,.4-.25,.29,.47-.35,.86-.31,.99-.37,.37-.17-.65,.14-.5,.14,.44-.01-.26,.02-.53,.04-.79,.04-.53,.01-1.06-.02-1.59-.05v12c5.63-.74,11.53-1.67,15.62-6.05,2.23-2.4,3.51-5.19,3.85-8.43,.12-1.19-.1-2.33-.15-3.52-.01-.23,.09-1.19-.07-.28-.21,1.2,.35-.72-.14,.45-.4,.96,.48-.33-.23,.44s-1.88,1.5-3,1.53c3.65-.09,7.13-3.8,5.79-7.6-.92-2.62-2.48-4.36-4.66-5.97-.59-.44-1.21-.84-1.82-1.25-.22-.15-.44-.32-.66-.46,1.66,1.02,.67,.42,.24,.12-.69-.49,.81,1.43,.23,.28,.4,1.06,.53,1.36,.4,.9-.13-.48-.09-.14,.12,1.01,0-.58-.03-.34-.11,.72-.16,.61-.47,1.14-.92,1.57,.44-.43,.28-.32-.48,.32,.55-.3,.36-.25-.55,.17,.21-.07,.42-.13,.64-.17l-.95,.14c.68,.03,.57,0-.32-.1,.28,.06,.56,.13,.83,.22,.62,.23,.55,.18-.22-.13,.27,.12,.53,.25,.79,.38,.43,.21,.85,.44,1.27,.66,.84,.44,1.67,.89,2.48,1.38,.38,.23,.75,.46,1.12,.71,.16,.1,.31,.21,.47,.32,.52,.38,.41,.29-.31-.27,.08,.27,.89,.76,1.12,.97,.18,.18,.78,1.04,.99,1.08l-.5-.63c.14,.2,.28,.41,.4,.62,.13,.21,.25,.43,.36,.65-.39-.99-.48-1.19-.26-.61,.1,.38,.17,.8,.29,1.17-.45-1.33-.12-1.12-.11-.39,0,.2,0,.4-.02,.61-.06,.64-.03,.4,.1-.7-.12,.29-.28,.84-.31,1.15,.44-.97,.52-1.18,.26-.63l-.14,.25c-.73,1.28,.79-.68,.1-.08-1.14,.98,.98-.63,.12-.09-.78,.49,1.55-.44,.09-.13-2.92,.63-4.67,3.79-4.3,6.58s2.9,5.4,5.89,5.2c.7,0,.5-.11-.62-.3-.65-.04-1.19-.3-1.62-.77l1.21-9.42c-1.23,.62-2.47,1.24-3.7,1.86-2.67,1.34-3.55,4.91-2.45,7.49s4.18,4.31,7.08,3.47c3.14-.9,6.34-1.68,9.43-2.73,1.98-.67,3.68-1.7,4.96-3.37,1.86-2.41,2.01-5.56,.47-8.19-1.38-2.36-4.14-3.54-6.79-3.45-.92,.03-1.95,.19-2.86,.45s.69-.07,.72-.08c-.64,0-.4,.04,.72,.15,2.57,.86,3.5,3.14,2.79,6.85,2.3-3.21,2.02-7.67,.66-11.17-1.09-2.81-2.31-5.8-4.09-8.26-2.33-3.22-5.13-5.46-8.9-6.8C35.18,.43,31.99,.25,28.96,.1c-3.65-.17-7.37-.24-10.94,.69s-6.92,2.89-9.59,5.43c-1.27,1.21-2.47,2.65-3.36,4.16-1.72,2.92-.18,5.68,.93,8.42,.61,1.51,1.3,2.73,2.76,3.59,1.29,.75,3.18,1.07,4.62,.6,2.8-.91,5.45-4.26,4.19-7.38-.51-1.26-1.02-2.53-1.53-3.79l-.6,4.62c.14-.21,.29-.42,.43-.64,.55-.85-.12,.22-.24,.3,.38-.25,.7-.81,1.03-1.13s.89-.65,1.13-1.03c-.07,.11-1.16,.8-.3,.24,.27-.18,.53-.36,.8-.53,.43-.27,.88-.52,1.33-.75,1.32-.66-1.07,.35,.33-.15,.42-.15,.85-.28,1.28-.4,.28-.07,.56-.14,.84-.19,.23-.05,.47-.09,.7-.13,.45-.07,.31-.05-.41,.06,.47-.22,1.39-.1,1.91-.11,.64-.02,1.28-.01,1.92,0,1.2,.03,2.4,.08,3.6,.15,.54,.03,1.08,.06,1.61,.11,.27,.02,.54,.05,.81,.08,1.07,.1-.27,0-.4-.06,.46,.18,1.08,.19,1.57,.31,.58,.14,1.13,.34,1.7,.52,.76,.24-1.03-.55-.35-.14,.22,.13,.47,.24,.69,.37s.44,.29,.67,.43c.68,.41-.84-.78-.3-.22,.3,.32,.64,.63,.94,.94,.69,.71-.14-.17-.22-.32,.16,.32,.46,.65,.65,.95,.56,.88,1.04,1.8,1.49,2.74,.2,.41,.39,.83,.57,1.24,.11,.24,.21,.48,.32,.71,.29,.64-.43-1.15-.04-.1,.2,.53,.4,1.06,.54,1.61-.01-.05,.22,.79,.18,.81-.15,.1-.04-1.37-.09-.38-.05,1.07,.07-.29,.09-.42-.17,.9-.09-.36,.18-.31-.25-.05-1.32,3.1-1.16,2.53-1.35,4.88,2.57,9.09,7.36,9.15,.87,.01,1.78-.14,2.63-.32,.2-.04,.41-.08,.6-.14,.66-.21-1.47,.02-.47,.08l-1-.14-3.25-5.92,1.11-1.94c.79-.55,.99-.7,.59-.45-.23,.14-.9,.43-.02,.07,1.01-.4-.13,0-.34,.05-2.89,.85-5.79,1.67-8.68,2.5l4.62,10.97c1.23-.62,2.47-1.24,3.7-1.86,3.34-1.68,3.98-6.95,1.21-9.42-1.72-1.54-3.88-2.61-6.25-2.45l1.6,11.79c5.22-1.13,8.09-6.07,8.55-11.04,.43-4.66-2.08-9.25-5.62-12.14-1.78-1.45-3.64-2.69-5.66-3.78-2.36-1.27-4.74-2.5-7.42-2.86-3.12-.42-6.46,.46-8.69,2.79s-3.23,5.72-2.17,8.81c.91,2.67,2.82,4.39,5.09,5.94,.34,.23,.69,.46,1.03,.69,.11,.08,.23,.16,.34,.23,.82,.53-.27-.18-.45-.37,.23,.25,.52,.48,.78,.71,.64,.58-.54-.55-.46-.62l.13,.21c.27,.53,.17,.29-.3-.74l5.79-7.6c-3.98,.1-7.33,2.92-8.27,6.79-.39,1.59-.29,3.08-.15,4.67,.05,.54-.08,1.23,.03,1.74-.07-.31,.32-1.26,.01-.52-.08,.2-.4,1.26-.08,.3,.37-1.1-.87,1.11-.17,.24,.58-.71,0-.03-.12,.11-.17,.18-.35,.36-.53,.53-.14,.13-.83,.69-.11,.13s0-.03-.16,.07c-.21,.13-.42,.26-.64,.38-.17,.09-1,.4-.25,.16,.79-.25-.16,.05-.31,.11-.28,.1-.56,.19-.84,.27-.57,.17-1.14,.31-1.72,.43s-1.17,.23-1.75,.32c-.29,.05-.59,.09-.88,.13-.86,.14,1.51-.2,.05,0-1.66,.22-3.01,.53-4.24,1.76-1.04,1.04-1.82,2.75-1.76,4.24,.15,3.39,2.64,5.82,6,6,2.75,.14,5.58-.15,7.96-1.66,2.66-1.7,4.28-4.78,4.16-7.94-.17-4.29-3.49-7.49-7.74-7.72-.95-.05-1.91,.12-2.84,.3-.53,.1-2.42,.27-.28,.12-.65-.02-.43,.01,.65,.11,1.83,.58,2.88,2.03,3.15,4.35,.05,.62-.09,1.2-.41,1.73,.15-.34,.3-.69,.45-1.04,1.59-3.77,.27-7.68-2.9-10.13-2.1-1.62-4.78-2-7.28-2.66-.42-.15-.27-.08,.47,.22-.25-.12-.5-.24-.73-.38-.24-.14-.47-.28-.69-.44,.66,.53,.75,.58,.27,.14-.43-.47-.36-.37,.2,.31-.15-.22-.28-.44-.39-.67,.33,.85,.39,.96,.19,.35-.11-.51-.12-.5-.02,.04,.06,.55,.08,.56,.07,.04-.17,.96-.17,1.12,0,.47-.43,.92-.49,1.11-.18,.57-.63,.77-.73,.93-.3,.48-.81,.58-.95,.71-.43,.38-.96,.36-1.14,.44-.55,.26-1.08,.09-1.3,.13-.66,.12-1.07-.19-1.29-.2-.67-.01l-2.65-10.03c-2.42,3.05-3.69,6.81-2.39,10.67,.48,1.42,1.39,2.86,2.76,3.59,1.52,.8,2.94,.87,4.62,.6,3.04-.47,5.95-1.57,8.66-3l-7.27-9.42c-2.92,2.75-4.27,6.26-4.75,10.16-.17,1.36,.78,3.34,1.76,4.24,1.17,1.08,2.62,1.76,4.24,1.76,5.23,0,10.63-2.29,13.95-6.4l-9.42-7.27c-.53,.89,.73-.74,.21-.27s1.05-.67,.41-.29c-.45,.28-.9,.57-1.36,.84-1.42,.85-2.71,1.81-3.72,3.12-2.15,2.78-2.86,7-.87,10.09,1.42,2.2,3.77,3.48,6.38,3.58,2.01,.07,4.03-.82,5.74-1.81,2.88-1.67,5.18-4.03,7.03-6.77,2.1-3.11,.05-8.02-3.59-8.81-5.6-1.22-11.62,1.57-14.05,6.89-1.3,2.85-1.71,5.77-.95,8.85,.6,2.45,2.07,4.83,3.87,6.58,8.33,8.12,22.25,4.29,27.95-5.05,1.7-2.78,2.35-6.13,1.61-9.32-.67-2.88-2.53-5.14-4.35-7.37-2.96-3.63-6.17-7.26-10.35-9.53-5.25-2.85-11.17-3.44-16.66-.96-4.15,1.87-7.22,5.72-9.49,9.54C3.36,20.4,.75,26.2,1.8,32.4c.46,2.74,2.11,5.52,4.21,7.33,2.98,2.58,6.4,3.46,10.25,2.77,3.1-.55,5.12-4.49,4.19-7.38-1.08-3.33-4.06-4.78-7.38-4.19h0Z"/>
    </g>
    <g>
      <path class="cls-1" d="M20.3,29.06c-1.92,1.17-4.64,.5-6.04-1.26s-1.53-4.33-.62-6.39,2.74-3.61,4.79-4.53c4-1.8,8.98-1.23,12.47,1.43,1.31,1,2.44,2.31,2.94,3.89s.27,3.43-.84,4.66c-1.42,1.58-4.01,1.96-4.97,3.85-.93,1.83,.04,4.51-1.54,5.82-1.28,1.07-3.39,.22-4.21-1.24s-.72-3.23-.6-4.89"/>
      <path d="M19.54,27.77c-1.32,.75-3.08,.32-4.05-.82-1.17-1.38-1.17-3.48-.43-5.05,1.67-3.54,6.15-4.94,9.79-4.47,3.22,.41,8.13,2.9,7.71,6.8-.2,1.84-1.81,2.46-3.22,3.28-1.59,.92-2.82,2.18-3.14,4.04-.16,.96-.1,1.95-.27,2.9-.11,.59-.31,1.13-1.01,1.06-2.22-.25-1.85-3.6-1.74-5.1,.14-1.93-2.86-1.92-3,0-.19,2.66-.06,5.65,2.37,7.3,2.1,1.43,5,.87,6-1.57,.77-1.88-.13-4.39,1.74-5.69,.98-.68,2.09-1.13,3.03-1.87,1-.79,1.73-1.85,2.05-3.09,1.45-5.63-4.44-10.03-9.34-10.9s-11.39,1.01-13.69,6.07c-1.24,2.73-1.04,6.13,1.03,8.41,1.91,2.12,5.21,2.69,7.69,1.29,1.68-.95,.17-3.54-1.51-2.59h0Z"/>
    </g>
    <path d="M18.78,33.2c3.73,.24,7.49-.14,11.11-1.09,.78-.2,1.26-1.07,1.05-1.85s-1.06-1.25-1.85-1.05c-3.37,.88-6.83,1.2-10.31,.98-.81-.05-1.5,.73-1.5,1.5,0,.85,.69,1.45,1.5,1.5h0Z"/>
    <path d="M20.39,35.36c3.25-.27,6.49-.77,9.67-1.52,.76-.18,1.29-1.09,1.05-1.85-.26-.8-1.03-1.24-1.85-1.05-3,.71-5.86,1.16-8.87,1.41-.78,.06-1.54,.64-1.5,1.5,.03,.76,.66,1.57,1.5,1.5h0Z"/>
    <path d="M21.1,37.66c2.81-.18,5.59-.66,8.28-1.47,.72-.22,1.17-.9,1.07-1.65s-.72-1.28-1.47-1.3c-.13,0-.26,0-.4-.01-.79-.02-1.54,.71-1.5,1.5,.04,.83,.66,1.47,1.5,1.5,.13,0,.26,0,.4,.01l-.4-2.95c-1.26,.38-2.53,.69-3.83,.92-.3,.05-.6,.1-.9,.15-.1,.02-.2,.03-.3,.04-.17,.02-.2,.03-.1,.02,.1-.01,.07,0-.1,.01-.1,.01-.2,.03-.3,.04-.65,.08-1.31,.13-1.96,.18-.78,.05-1.54,.65-1.5,1.5,.03,.77,.66,1.55,1.5,1.5h0Z"/>
    <path d="M22.35,39.06c2.05-.07,4.11-.43,6.05-1.1,.71-.25,1.18-.88,1.07-1.65s-.72-1.3-1.47-1.3c-.16,0-.32,0-.48,0-.78,0-1.54,.69-1.5,1.5s.66,1.5,1.5,1.5c.16,0,.32,0,.48,0l-.4-2.95c-.89,.31-1.81,.55-2.73,.73-.23,.04-.46,.08-.69,.12-.11,.02-.4,.11-.02,0-.11,.03-.25,.03-.37,.04-.48,.05-.96,.08-1.44,.1-.78,.03-1.54,.67-1.5,1.5s.66,1.53,1.5,1.5h0Z"/>
    <path d="M23.2,28.47c-.08-.27-.15-.53-.2-.81-.02-.09-.07-.26-.06-.35,.03,.2,.03,.22,.01,.04,0-.06-.01-.12-.01-.18-.04-.54-.02-1.07,.05-1.6l-1.9,1.45c.06,.01,.21,.07,.27,.07-.09,0-.31-.12-.07,0,.16,.08-.3-.22-.05-.03,.21,.16-.16-.26-.01-.01,.55,.91,2.07,1.04,2.59,0,.14-.27,.27-.54,.41-.81l-1.69,.69c1.78,.62,3.83,.38,5.44-.59l-2.2-.9c.21,1.33,.42,2.66,.63,4,.12,.78,1.13,1.28,1.85,1.05,.84-.27,1.18-1.01,1.05-1.85-.21-1.33-.42-2.66-.63-4-.15-.97-1.45-1.35-2.2-.9-.15,.09-.3,.17-.45,.25-.25,.13,.2-.07,.03,0-.08,.03-.16,.06-.24,.09-.16,.05-.33,.1-.5,.13-.08,.02-.17,.03-.25,.05-.19,.04,.38-.03,.04,0s-.65,.01-.98,0c-.19-.01,.32,.06,.04,0-.08-.02-.17-.03-.25-.05-.19-.04-.37-.1-.55-.16-.59-.21-1.41,.13-1.69,.69-.14,.27-.27,.54-.41,.81h2.59c-.42-.69-1.12-1.25-1.92-1.4-.49-.09-.91-.04-1.31,.27s-.53,.69-.59,1.18c-.16,1.23-.04,2.51,.32,3.69,.23,.75,1.06,1.3,1.85,1.05s1.29-1.04,1.05-1.85h0Z"/>
    <path d="M39.42,27.47c1.79,1.06,3.85,1.63,5.92,1.66,.78,.01,1.54-.7,1.5-1.5s-.66-1.49-1.5-1.5c-.42,0-.84-.04-1.26-.09l.4,.05c-.67-.09-1.34-.25-1.98-.47-.16-.05-.31-.11-.47-.17-.27-.1,.31,.14,.02,.01-.07-.03-.14-.06-.21-.09-.31-.15-.62-.31-.92-.49-.68-.4-1.68-.18-2.05,.54s-.18,1.63,.54,2.05h0Z"/>
    <path d="M39.86,21.35c2.13-.33,4.19-1.03,6.11-2.01,.7-.36,.96-1.4,.54-2.05-.46-.72-1.3-.92-2.05-.54-.22,.11-.44,.22-.66,.32-.13,.06-.25,.11-.38,.17-.3,.14,.26-.1-.03,.01-.47,.19-.94,.37-1.42,.52-.95,.3-1.92,.53-2.9,.68-.35,.05-.73,.4-.9,.69-.19,.32-.27,.8-.15,1.16,.27,.85,1.01,1.18,1.85,1.05h0Z"/>
    <path d="M36.84,14.27l2.14-3.57c.2-.33,.25-.78,.15-1.16-.1-.35-.36-.73-.69-.9-.73-.38-1.62-.18-2.05,.54l-2.14,3.57c-.2,.33-.25,.78-.15,1.16,.1,.35,.36,.73,.69,.9,.73,.38,1.62,.18,2.05-.54h0Z"/>
    <path d="M28.65,10.48l.36-4.46c.03-.36-.19-.81-.44-1.06s-.69-.46-1.06-.44c-.87,.04-1.43,.66-1.5,1.5l-.36,4.46c-.03,.36,.19,.81,.44,1.06s.69,.46,1.06,.44c.87-.04,1.43-.66,1.5-1.5h0Z"/>
    <path d="M20.78,11.51c-.25-.34-.49-.7-.7-1.08-.09-.16-.17-.32-.26-.49-.05-.11-.1-.22-.16-.33-.12-.26,.12,.31,0,.02-.3-.77-.52-1.57-.63-2.39l.05,.4c-.03-.24-.06-.49-.07-.73-.05-.78-.65-1.54-1.5-1.5-.77,.03-1.55,.66-1.5,1.5,.14,2.19,.85,4.34,2.16,6.11,.24,.32,.49,.58,.9,.69,.36,.1,.84,.05,1.16-.15,.62-.4,1.04-1.38,.54-2.05h0Z"/>
    <path d="M10.4,16.34c-.29-.01-.57-.03-.85-.07l.4,.05c-.82-.11-1.63-.33-2.39-.65l.36,.15c-.61-.26-1.18-.58-1.72-.96-.3-.21-.81-.25-1.16-.15s-.73,.36-.9,.69c-.41,.77-.15,1.57,.54,2.05,1.67,1.18,3.69,1.81,5.73,1.89,.78,.03,1.54-.71,1.5-1.5-.04-.84-.66-1.47-1.5-1.5h0Z"/>
    <path d="M7.37,25.99c-.23,.26-.49,.49-.76,.7l.3-.23c-.41,.32-.86,.58-1.34,.78l.36-.15c-.35,.15-.72,.26-1.09,.34s-.72,.38-.9,.69c-.19,.32-.27,.8-.15,1.16s.34,.71,.69,.9c.37,.2,.74,.24,1.16,.15,1.46-.3,2.85-1.11,3.85-2.21,.27-.29,.44-.66,.44-1.06,0-.37-.16-.81-.44-1.06s-.66-.46-1.06-.44-.79,.14-1.06,.44h0Z"/>
    <path d="M11.3,30.82c-.74,.58-1.36,1.34-1.81,2.15-.53,.95-.81,1.94-.94,3.01-.04,.35,.2,.82,.44,1.06,.26,.26,.69,.46,1.06,.44s.79-.14,1.06-.44l.23-.3c.14-.23,.2-.49,.2-.76v-.06c0,.13-.03,.27-.05,.4,.07-.53,.21-1.05,.42-1.55l-.15,.36c.22-.52,.5-1,.84-1.44l-.23,.3c.31-.39,.66-.74,1.04-1.05,.28-.22,.44-.72,.44-1.06,0-.37-.16-.81-.44-1.06s-.66-.46-1.06-.44l-.4,.05c-.25,.07-.47,.2-.66,.39h0Z"/>
  </g>
</svg>