<?xml version="1.0" encoding="UTF-8"?>
<svg id="Layer_2" data-name="Layer 2" xmlns="http://www.w3.org/2000/svg" viewBox="0 0 97.63 75.36">
  <defs>
    <style>
      .cls-1 {
        opacity: .03;
      }

      .cls-2 {
        fill: #ffd372;
      }

      .cls-3 {
        fill: #f9f9f9;
      }
    </style>
  </defs>
  <g id="Layer_1-2" data-name="Layer 1">
    <path class="cls-3" d="M3.41,39.68c1.16,8.44,6.49,15.93,13.4,20.68,6.91,4.75,15.27,6.95,23.58,7.44,10.17,.61,21.15-1.61,28.26-9.08,7.71-8.1,9-21.79,2.94-31.25-1-1.56-2.24-3.06-3.9-3.83-1.99-.92-4.28-.68-6.45-.42-19.82,2.37-40.47,5.04-57.08,16.36"/>
    <g>
      <path d="M67.54,23.98c5.63,6.38,8.55,15.28,6.4,23.68-1.1,4.3-3.37,8.02-6.71,10.94-3.13,2.74-6.96,4.56-10.95,5.63-4.4,1.18-8.97,1.46-13.51,1.31-1.93-.07-1.93,2.93,0,3,8.92,.3,18.25-1.22,25.44-6.87,7.73-6.07,10.82-16.04,8.81-25.55-1.12-5.32-3.78-10.19-7.36-14.25-1.28-1.45-3.4,.68-2.12,2.12h0Z"/>
      <path d="M45.02,66.31c-13.06,.75-28.28-3.79-35.79-15.22-2.18-3.32-3.51-7.03-4.07-10.95-.27-1.9-3.17-1.09-2.89,.8,2.21,15.33,16.05,24.85,30.41,27.55,4.07,.76,8.21,1.06,12.34,.82,1.92-.11,1.93-3.11,0-3h0Z"/>
    </g>
    <g>
      <g>
        <path class="cls-2" d="M31.88,27.72c13.46-2.69,27.11-4.44,40.81-5.24"/>
        <path d="M32.27,29.17c13.34-2.65,26.84-4.38,40.41-5.19,1.92-.11,1.93-3.11,0-3-13.84,.82-27.61,2.6-41.21,5.3-1.89,.38-1.09,3.27,.8,2.89h0Z"/>
      </g>
      <g>
        <g>
          <path class="cls-2" d="M1.58,40.45c-.19-6.57-.19-13.57,1.81-19.57C7.39,12.88,15.39,6.88,23.39,3.88,37.39-1.12,55.39,1.88,63.65,14.39"/>
          <path d="M3.08,40.45c-.1-3.48-.15-6.97,.12-10.45,.25-3.23,.6-6.9,2.24-9.75,3.02-5.25,7.72-9.41,12.95-12.37,9.19-5.2,20.64-6.29,30.63-2.78,5.36,1.89,10.17,5.3,13.35,10.05,1.07,1.6,3.67,.1,2.59-1.51C58.55,4.08,46.99-.2,35.8,.1,23.45,.42,11.18,6.45,4.11,16.73c-1.07,1.56-2.03,3.17-2.54,5-.56,1.97-.9,4-1.15,6.03C-.09,31.96-.04,36.22,.08,40.45c.05,1.93,3.05,1.93,3,0h0Z"/>
        </g>
        <g>
          <path class="cls-2" d="M29.7,27.38c2.44-4.35,6.89-7.28,11.6-8.9s9.74-2.06,14.7-2.5c5.8-.51,11.61-1.02,17.41-1.53,1.22-.11,2.57-.18,3.55,.56,1.4,1.05,1.29,3.31,.24,4.71s-2.73,2.15-4.33,2.84"/>
          <path d="M30.99,28.14c3.64-6.31,10.91-8.82,17.73-9.86,4.05-.62,8.17-.87,12.25-1.22s8.41-.78,12.62-1.1c1.58-.12,3.49,.11,2.76,2.21-.59,1.7-2.73,2.47-4.24,3.13-1.77,.77-.24,3.35,1.51,2.59,3.22-1.4,7.14-4.17,5.55-8.27-.76-1.95-2.67-2.72-4.65-2.71-2.44,.02-4.91,.4-7.34,.61-5.05,.44-10.11,.82-15.15,1.35-4.61,.49-9.2,1.24-13.47,3.1s-7.88,4.71-10.17,8.67c-.97,1.67,1.62,3.19,2.59,1.51h0Z"/>
        </g>
        <g>
          <path class="cls-2" d="M1.55,40.69c8.97-5.74,18.68-10.32,28.8-13.64"/>
          <path d="M2.31,41.98c8.88-5.67,18.43-10.19,28.44-13.49,1.82-.6,1.04-3.5-.8-2.89-10.24,3.38-20.06,7.99-29.15,13.79-1.62,1.04-.12,3.63,1.51,2.59h0Z"/>
        </g>
      </g>
      <g>
        <path class="cls-2" d="M19.94,4.93c6.05-2.17,13.01,1.16,15.61,6.93"/>
        <path d="M20.34,6.37c5.5-1.91,11.52,1.05,13.91,6.24,.34,.74,1.4,.92,2.05,.54,.76-.44,.88-1.31,.54-2.05-2.91-6.34-10.63-9.94-17.3-7.62-.76,.27-1.27,1.03-1.05,1.85,.2,.74,1.08,1.31,1.85,1.05h0Z"/>
      </g>
      <g>
        <path class="cls-2" d="M30.32,2.15c6.05-2.17,13.01,1.16,15.61,6.93"/>
        <path d="M30.72,3.6c5.5-1.91,11.52,1.05,13.91,6.24,.34,.74,1.4,.92,2.05,.54,.76-.44,.88-1.31,.54-2.05C44.3,1.99,36.58-1.61,29.92,.71c-.76,.27-1.27,1.03-1.05,1.85,.2,.74,1.08,1.31,1.85,1.05h0Z"/>
      </g>
      <g>
        <path class="cls-2" d="M31.06,27.87c13.46-2.69,27.11-4.44,40.81-5.24"/>
        <path d="M31.46,29.31c13.34-2.65,26.84-4.38,40.41-5.19,1.92-.11,1.93-3.11,0-3-13.84,.82-27.61,2.6-41.21,5.3-1.89,.38-1.09,3.27,.8,2.89h0Z"/>
      </g>
    </g>
    <path d="M42.1,35.52c1.93,0,1.93-3,0-3s-1.93,3,0,3h0Z"/>
    <path d="M66.38,34.71c1.93,0,1.93-3,0-3s-1.93,3,0,3h0Z"/>
    <path d="M50.65,43.26c3.05,1.01,6.4,.7,9.26-.72,.7-.35,.96-1.4,.54-2.05-.46-.72-1.3-.91-2.05-.54-.17,.08-.33,.16-.5,.24,.27-.12-.1,.04-.16,.06-.3,.11-.61,.21-.93,.3s-.63,.16-.95,.21c-.09,.02-.18,.03-.27,.04,.17-.02,.16-.02-.01,0-.16,.01-.32,.03-.48,.04-.65,.04-1.29,.01-1.94-.05-.11-.01-.09-.01,.05,0-.09-.01-.18-.03-.27-.05-.16-.03-.32-.06-.48-.1-.34-.08-.67-.17-1-.28-.75-.25-1.67,.29-1.85,1.05-.19,.83,.25,1.58,1.05,1.85h0Z"/>
    <g class="cls-1">
      <path d="M7.9,44.19c13.39-9.67,30.06-12.67,46.2-13.83,5.09-.37,10.19-.58,15.29-.79,1.62-.07,3-1.33,3-3,0-1.57-1.37-3.07-3-3-17.74,.73-35.85,1.61-52.41,8.66-4.27,1.82-8.34,4.06-12.11,6.77-1.31,.95-1.95,2.61-1.08,4.1,.76,1.3,2.78,2.03,4.1,1.08h0Z"/>
    </g>
    <g class="cls-1">
      <path d="M31.5,31.2c3.14-.43,6.21-1.15,9.32-1.76s6.52-1.01,9.83-1.21c6.66-.42,13.34-.63,20.01-.92,1.92-.09,1.93-3.09,0-3-6.83,.3-13.67,.5-20.49,.96-3.25,.22-6.48,.59-9.68,1.2s-6.49,1.4-9.78,1.85c-.81,.11-1.23,1.14-1.05,1.85,.23,.87,1.05,1.16,1.85,1.05h0Z"/>
    </g>
    <path d="M77.74,43.88c4.72,.02,9.4-1.27,13.45-3.71,1.65-1,.14-3.59-1.51-2.59-3.61,2.18-7.72,3.32-11.93,3.3-1.93,0-1.93,2.99,0,3h0Z"/>
    <g>
      <path d="M92.7,45.84c.05-3.63,.27-7.26,.66-10.88l-1.5,1.5c.67,0,1.33,0,2,0l-1.5-1.5c-.03,3.62,.15,7.24,.53,10.84l1.1-1.45c.14-.02-.53-.04-.4-.02-.11-.02-.22-.05-.33-.09-.37-.12,.07,.06-.26-.13-.71-.4-1.64-.17-2.05,.54s-.17,1.65,.54,2.05c1.04,.59,2.13,.72,3.3,.54,.59-.09,1.16-.85,1.1-1.45-.38-3.6-.56-7.22-.53-10.84,0-.81-.69-1.5-1.5-1.5-.67,0-1.33,0-2,0-.88,0-1.41,.69-1.5,1.5-.4,3.61-.62,7.24-.66,10.88-.01,.81,.7,1.5,1.5,1.5s1.49-.69,1.5-1.5h0Z"/>
      <path d="M96.17,46.05c-.05-3.63-.27-7.26-.66-10.88-.09-.8-.62-1.5-1.5-1.5-.67,0-1.33,0-2,0-.81,0-1.51,.68-1.5,1.5,.03,3.62-.15,7.24-.53,10.84-.06,.59,.51,1.35,1.1,1.45,1.17,.18,2.26,.05,3.3-.54,.71-.4,.94-1.36,.54-2.05s-1.34-.94-2.05-.54c-.16,.09-.08,.06-.18,.1-.13,.05-.28,.09-.41,.12,.13-.03-.52,0-.4,.02l1.1,1.45c.38-3.6,.56-7.22,.53-10.84l-1.5,1.5c.67,0,1.33,0,2,0l-1.5-1.5c.4,3.61,.62,7.24,.66,10.88,.01,.81,.68,1.5,1.5,1.5s1.51-.69,1.5-1.5h0Z"/>
    </g>
    <path d="M33.85,69.26v3.2c0,.38,.17,.79,.44,1.06s.69,.46,1.06,.44c.81-.04,1.5-.66,1.5-1.5v-3.2c0-.38-.17-.79-.44-1.06s-.69-.46-1.06-.44c-.81,.04-1.5,.66-1.5,1.5h0Z"/>
    <path d="M94.35,34.44l-.37-7.59c-.04-.78-.66-1.54-1.5-1.5-.78,.03-1.54,.66-1.5,1.5l.37,7.59c.04,.78,.66,1.54,1.5,1.5,.78-.03,1.54-.66,1.5-1.5h0Z"/>
    <path d="M93.55,25.98l-.46-1.5-.69,1.69s.07-.03,.1-.05l-.36,.15c.08-.03,.17-.06,.26-.07l-.4,.05c.1-.01,.19-.01,.29,0l-.4-.05c.1,.01,.21,.04,.3,.08l-.36-.15c.08,.04,.16,.08,.23,.14l-.3-.23c.07,.05,.12,.11,.18,.17l-.23-.3c.05,.07,.09,.14,.13,.22l-.15-.36c.04,.09,.06,.19,.08,.29l-.05-.4c.01,.1,.01,.2,0,.3l.05-.4c-.01,.1-.04,.2-.08,.29l.15-.36c-.03,.08-.08,.15-.13,.22l.23-.3s-.02,.02-.03,.04h2.12c-.06-.06-.12-.12-.18-.18-.14-.15-.3-.25-.48-.31-.18-.09-.37-.14-.58-.13-.21,0-.4,.04-.58,.13-.19,.06-.35,.16-.48,.31-.26,.29-.46,.66-.44,1.06s.15,.77,.44,1.06c.06,.06,.12,.12,.18,.18,.14,.15,.3,.25,.48,.31,.18,.09,.37,.14,.58,.13l.4-.05c.25-.07,.47-.2,.66-.39,.14-.17,.3-.35,.39-.56s.19-.41,.23-.64,.08-.46,.06-.69-.04-.47-.13-.69c-.06-.16-.12-.32-.21-.47-.06-.1-.13-.19-.2-.28s-.13-.18-.21-.25c-.13-.12-.27-.23-.42-.33-.18-.13-.4-.21-.6-.28-.21-.08-.46-.1-.68-.12-.24-.02-.48,.02-.71,.06-.06,.01-.12,.03-.17,.05-.17,.06-.34,.13-.5,.22l-.3,.23c-.15,.14-.25,.3-.31,.48-.07,.12-.1,.24-.1,.38-.04,.2-.04,.4,.03,.6l.46,1.5c.11,.37,.36,.7,.69,.9,.17,.11,.36,.17,.56,.18,.2,.04,.4,.04,.6-.03,.36-.12,.71-.34,.9-.69s.27-.76,.15-1.16h0Z"/>
    <path d="M93.42,26.74l1.13,.02c.57,.01,1.15,.05,1.67-.24,.64-.35,.97-1.02,1-1.73,.01-.43-.15-.82-.21-1.23l.05,.4c0-.08,0-.15,0-.22l-.05,.4s.01-.07,.03-.11l-.15,.36,.02-.05-2.74-.36c.18,1.11,.35,2.22,.53,3.34,.05,.33,.4,.74,.69,.9s.62,.22,.96,.18c.72-.1,1.32-.72,1.3-1.47-.02-1.13-.05-2.27-.07-3.4,0-.39-.16-.78-.44-1.06-.26-.26-.69-.46-1.06-.44s-.79,.14-1.06,.44-.45,.66-.44,1.06c.02,1.13,.05,2.27,.07,3.4l2.95-.4c-.18-1.11-.35-2.22-.53-3.34l-.15-.36-.23-.3c-.23-.23-.54-.37-.86-.41-.27-.04-.52,0-.78,.1-.27,.11-.6,.33-.72,.61-.15,.35-.23,.56-.26,.95-.01,.22,.03,.44,.07,.65,.04,.19,.11,.38,.14,.57l-.05-.4c.01,.09,.01,.18,0,.27l.05-.4c0,.06-.02,.11-.04,.16l.15-.36s-.04,.07-.06,.1l.23-.3s-.04,.04-.06,.06l.3-.23s-.05,.04-.08,.05l.36-.15c-.05,.02-.1,.03-.16,.04l.4-.05c-.3,.03-.62,0-.92,0l-.97-.02c-.38,0-.79,.17-1.06,.44s-.46,.69-.44,1.06c.04,.83,.66,1.48,1.5,1.5h0Z"/>
    <path d="M91.92,23.95c-1.19-.27-2.52-.26-3.6,.39-.52,.31-.97,.76-1.27,1.29s-.49,1.16-.43,1.76c.04,.41,.14,.76,.44,1.06,.26,.26,.69,.46,1.06,.44s.79-.14,1.06-.44c.25-.28,.48-.67,.44-1.06-.01-.12,0-.23,0-.35l-.05,.4c.02-.15,.06-.29,.11-.43l-.15,.36c.07-.15,.15-.3,.25-.43l-.23,.3c.11-.15,.24-.28,.39-.4l-.3,.23c.15-.12,.32-.21,.49-.29l-.36,.15c.22-.09,.44-.15,.68-.19l-.4,.05c.34-.04,.67-.04,1.01,0l-.4-.05c.16,.02,.31,.05,.47,.09,.39,.09,.8,.05,1.16-.15,.31-.18,.61-.54,.69-.9,.09-.38,.07-.81-.15-1.16-.21-.32-.51-.6-.9-.69h0Z"/>
    <path d="M35.13,74.47l3.5,.85c.39,.09,.81,.05,1.16-.15,.31-.18,.61-.54,.69-.9,.09-.38,.07-.81-.15-1.16-.21-.32-.51-.6-.9-.69l-3.5-.85c-.39-.09-.81-.05-1.16,.15-.31,.18-.61,.54-.69,.9-.09,.38-.07,.81,.15,1.16,.21,.32,.51,.6,.9,.69h0Z"/>
    <path d="M50.39,67.94l-.12,4.09c-.02,.79,.71,1.54,1.5,1.5s1.48-.66,1.5-1.5l.12-4.09c.02-.79-.71-1.54-1.5-1.5s-1.48,.66-1.5,1.5h0Z"/>
    <path d="M51.52,74.09l4.09,.07c.78,.01,1.54-.7,1.5-1.5s-.66-1.49-1.5-1.5l-4.09-.07c-.78-.01-1.54,.7-1.5,1.5s.66,1.49,1.5,1.5h0Z"/>
    <path d="M21.69,50.5c-3.81-1.25-5.74,3.3-6.52,6.16-.89,3.29-.92,6.76-.16,10.08,.44,1.88,3.33,1.08,2.89-.8-.57-2.46-.61-5.03-.08-7.5,.25-1.17,.6-2.37,1.11-3.46,.35-.74,.96-1.92,1.96-1.59,1.84,.6,2.63-2.29,.8-2.89h0Z"/>
    <path d="M17.05,66.39c-.05-.04-.1-.09-.14-.15l.23,.3c-.05-.06-.08-.13-.12-.2l.15,.36c-.04-.09-.06-.18-.07-.27l.05,.4c0-.08,0-.15,0-.23l-.05,.4s0-.03,0-.05l-.69,.9c.1-.07,.21-.13,.32-.18l-.36,.15c.12-.05,.25-.09,.38-.11l-.4,.05c.1-.01,.2-.01,.31,0l-.4-.05c.08,.01,.16,.03,.23,.06l-.36-.15c.06,.03,.12,.06,.18,.11l-.3-.23c.06,.05,.12,.1,.16,.16l-.23-.3c.05,.06,.08,.13,.12,.2l-.15-.36c.02,.06,.04,.11,.05,.17l-.05-.4c0,.06,0,.12,0,.18l.05-.4c0,.05-.02,.1-.04,.15l.15-.36s-.03,.06-.06,.09l.23-.3s-.06,.06-.09,.09l.3-.23s-.09,.06-.14,.08l.36-.15c-.05,.02-.1,.04-.16,.04l.4-.05c-.06,0-.12,0-.18,0l.4,.05s-.09-.02-.13-.04l.36,.15s-.06-.03-.09-.05l.3,.23s-.05-.05-.07-.07l.23,.3s-.03-.05-.05-.08c-.09-.17-.22-.32-.39-.42-.14-.13-.31-.22-.51-.27-.2-.06-.4-.07-.6-.03-.2,0-.39,.07-.56,.18-.32,.21-.6,.51-.69,.9l-.05,.4c0,.27,.07,.52,.2,.76,.22,.45,.69,.76,1.15,.91,.35,.11,.8,.1,1.16,0s.73-.3,.96-.58,.36-.46,.46-.82c.06-.2,.09-.42,.08-.63-.01-.2-.03-.41-.1-.61-.04-.12-.12-.31-.2-.45s-.21-.3-.3-.41-.2-.19-.32-.28c-.08-.06-.16-.13-.25-.18-.15-.08-.31-.14-.46-.2-.21-.08-.45-.09-.66-.11s-.46,.03-.68,.06c-.1,.02-.2,.04-.3,.08-.22,.08-.44,.17-.64,.29-.25,.16-.48,.34-.63,.6-.16,.28-.2,.54-.22,.86-.02,.23,.02,.47,.08,.69s.15,.44,.26,.63c.09,.14,.2,.28,.31,.41,.04,.05,.08,.09,.13,.13,.14,.15,.3,.25,.48,.31,.18,.09,.37,.14,.58,.13,.21,0,.4-.04,.58-.13,.19-.06,.35-.16,.48-.31,.26-.29,.46-.66,.44-1.06s-.14-.8-.44-1.06h0Z"/>
  </g>
</svg>